<?xml version="1.0" encoding="utf-8" ?>
<svg baseProfile="full" height="200mm" version="1.1" viewBox="0,0,200,200" width="200mm" xmlns="http://www.w3.org/2000/svg" xmlns:ev="http://www.w3.org/2001/xml-events" xmlns:xlink="http://www.w3.org/1999/xlink"><defs /><rect fill="#1a1a1a" height="200" width="200" x="0" y="0" /><text alignment-baseline="middle" fill="#e1ed5e" style="dominant-baseline: central; font-size:9.0px; font-family:Arial;" text-anchor="middle" x="100.0" y="100.0">2019</text><line stroke="#e1ed5e" stroke-width="0.3" x1="100.0" x2="100.0" y1="15.0" y2="10.0" /><path d="M 100.0 14.0 a86.0,86.0 0 0,1 42.46469731375804,11.215312516191453" fill="none" id="id73" stroke="none" /><text fill="#e1ed5e" style="font-size:6.75px; font-family:Arial;" text-anchor="middle"><textPath startOffset="22.20632615414155" xlink:href="#id73">January</textPath></text><path d="M 100.0 79.0 l 0.0 -41.04478138222849 a62.04478138222849,62.04478138222849 0 0,0 1.0679989195432,0.009192603879800693 l -0.7065184402706717 41.038700154957255" fill="#30ff2f" stroke="none" /><path d="M 101.44485096284872 79.0497635885617 l 4.306290827176494 -62.440911350385406 a83.58922871353276,83.58922871353276 0 0,0 1.4345894329520141,0.11135175033950248 l -5.38047044949085 62.357534337857444" fill="#4cd6ff" stroke="none" /><path d="M 103.59715602781102 79.31037775812273 l 5.362422096466048 -30.842834344578645 a52.305526686957165,52.305526686957165 0 0,0 0.8857190706268757,0.16185949878323863 l -5.892536288195825 30.745959364444666" fill="#9eff22" stroke="none" /><path d="M 106.40334571778207 80.00007090966166 l 18.608252899860044 -58.120200734873066 a82.02642713978175,82.02642713978175 0 0,0 1.3410038793889447,0.44210789525109556 l -19.605939601491407 57.791279115362734" fill="#4ae6ff" stroke="none" /><path d="M 107.76421540070413 80.48803036053334 l 4.664955712229908 -11.723331918152569 a33.6173817830896,33.6173817830896 0 0,0 0.5358228545240755,0.21857559607101612 l -4.8660624363423715 11.641295435897973" fill="#ff6309" stroke="none" /><path d="M 108.76106565485865 80.91482961587045 l 24.478596940389256 -53.32435707894473 a79.67443025759037,79.67443025759037 0 0,0 1.2414861705987692,0.5828944036082273 l -25.392861322287622 52.895097692696496" fill="#47feff" stroke="none" /><path d="M 110.05341064243156 81.56283822128135 l 15.555509221700106 -28.527576388888885 a53.493022047360995,53.493022047360995 0 0,0 0.8046265270238031,0.4477737911380897 l -16.044259837795945 28.255587200190615" fill="#90ff24" stroke="none" /><line stroke="#e1ed5e" stroke-width="0.3" x1="143.23703022742887" x2="145.7803849466894" y1="26.81831364943548" y2="22.513508569990506" /><path d="M 143.74570117128098 25.957352633546492 a86.0,86.0 0 0,1 28.547481713284135,27.462654790039103" fill="none" id="id74" stroke="none" /><text fill="#e1ed5e" style="font-size:6.75px; font-family:Arial;" text-anchor="middle"><textPath startOffset="19.985693538727396" xlink:href="#id74">February</textPath></text><path d="M 111.60114157652 82.49532879139004 l 17.757600699461698 -26.79399778440616 a53.14421720733427,53.14421720733427 0 0,0 0.7581789521312585,0.511925812916941 l -18.216184345999498 26.484360059190546" fill="#94ff23" stroke="none" /><path d="M 113.06298171725822 83.55741782278167 l 38.143596306759115 -48.01194936833811 a82.31950115061986,82.31950115061986 0 0,0 1.1018920002526524,0.890986699418779 l -38.96439170557626 47.3482565716552" fill="#4be3ff" stroke="none" /><path d="M 114.94478906791727 85.2469230424477 l 41.60294901968409 -41.069265398073675 a79.4593014624007,79.4593014624007 0 0,0 0.9525117028225745,0.9816470379011383 l -42.30372498620977 40.34705416462242" fill="#47fffe" stroke="none" /><path d="M 117.2510076193507 88.02491185347247 l 5.688440044922855 -3.9487299789826493 a27.924652958206515,27.924652958206515 0 0,0 0.27070362604676557,0.3972241681506353 l -5.755568136638353 3.8502277875616078" fill="#ff0b01" stroke="none" /><line stroke="#e1ed5e" stroke-width="0.3" x1="172.23445277983987" x2="176.4835382374775" y1="55.19839476539836" y2="52.563006222186495" /><path d="M 173.08426987136738 54.67131705675599 a86.0,86.0 0 0,1 12.851231095245387,41.99856678651699" fill="none" id="id75" stroke="none" /><text fill="#e1ed5e" style="font-size:6.75px; font-family:Arial;" text-anchor="middle"><textPath startOffset="22.20632615414155" xlink:href="#id75">March</textPath></text><path d="M 119.196687751892 91.48605970444005 l 55.9847578772701 -24.829850450710104 a82.24389429144088,82.24389429144088 0 0,0 0.5628196032569796,1.2990652423333313 l -56.40386819036976 23.86248606379017" fill="#4be4ff" stroke="none" /><path d="M 120.67395015179393 96.31383870115 l 20.156756090391326 -3.593945698099309 a41.47464924652958,41.47464924652958 0 0,0 0.11926556486188601,0.7039121150513795 l -20.215633516773433 3.246447794732092" fill="#ffd413" stroke="none" /><path d="M 120.91429891909075 98.10471618934814 l 33.060614529921914 -2.9960003790309644 a54.19608789250983,54.19608789250983 0 0,0 0.07619845095192304,0.9298141052121828 l -33.10728746469333 2.4264723566110127" fill="#88ff25" stroke="none" /><path d="M 120.94382443527127 98.46500227214037 l 12.847546078306296 -0.94161188658363 a33.88200579021602,33.88200579021602 0 0,0 0.037624207172038536,0.5820298320831717 l -12.86185087648275 0.7203229902474231" fill="#ff6709" stroke="none" /><path d="M 120.96714384426684 98.82574320788733 l 62.90143153280055 -3.5227703763380056 a84.0,84.0 0 0,0 0.0684255670660141,1.444355573508001 l -62.95275070810006 2.4395036962070047" fill="#4dd2ff" stroke="none" /><line stroke="#e1ed5e" stroke-width="0.3" x1="184.98032266829074" x2="189.97916517819016" y1="98.17113171792111" y2="98.06355123074" /><path d="M 185.9800911702706 98.14961562048488 a86.0,86.0 0 0,1 -9.607161424134198,41.387399972396054" fill="none" id="id76" stroke="none" /><text fill="#e1ed5e" style="font-size:6.75px; font-family:Arial;" text-anchor="middle"><textPath startOffset="21.466115282336823" xlink:href="#id76">April</textPath></text><path d="M 120.9904718944345 100.63252640178507 l 35.80191355374318 1.0788540472581598 a56.81816494692302,56.81816494692302 0 0,0 -0.037873005931688186,0.977333998178087 l -35.778038414960285 -1.694965292450253" fill="#6aff28" stroke="none" /><path d="M 120.8583938346157 102.4346265915055 l 42.71588785643248 4.9858698267768045 a64.00588300794298,64.00588300794298 0 0,0 -0.13715086355620207,1.0932273264812982 l -42.62373548362943 -5.720414907545497" fill="#32ff48" stroke="none" /><path d="M 120.70491114924044 103.5080841355445 l 21.396176370038518 3.62520690593728 a42.70111721475763,42.70111721475763 0 0,0 -0.12902560968417548,0.7236441399750105 l -21.330604318015155 -3.9929697966455087" fill="#ffe515" stroke="none" /><path d="M 120.49622156327973 104.57218783832717 l 30.67662528088828 6.843178026601763 a52.4306287580729,52.4306287580729 0 0,0 -0.20407856774238858,0.8791651286018645 l -30.55428614721534 -7.370211812552192" fill="#9dff22" stroke="none" /><path d="M 119.9155931802556 106.66101706037122 l 16.00521206810535 5.353141614993606 a37.876698092198055,37.876698092198055 0 0,0 -0.212126047106549,0.6165375868932721 l -15.91069519005557 -5.627851904976178" fill="#ffa10e" stroke="none" /><line stroke="#e1ed5e" stroke-width="0.3" x1="174.80103733775053" x2="179.2010983576182" y1="140.37084112569926" y2="142.7455964860345" /><path d="M 175.68104954172406 140.8457921977663 a86.0,86.0 0 0,1 -30.038265399797805,32.042727171017184" fill="none" id="id77" stroke="none" /><text fill="#e1ed5e" style="font-size:6.75px; font-family:Arial;" text-anchor="middle"><textPath startOffset="22.206326154141568" xlink:href="#id77">May</textPath></text><path d="M 117.94076556474637 110.91462005526583 l 53.810643387232076 32.7367706456814 a83.98635958726152,83.98635958726152 0 0,0 -0.762017680330234,1.228615132403908 l -53.23916106723388 -33.658182109450586" fill="#4dd2ff" stroke="none" /><path d="M 116.498646956653 112.99209946851258 l 43.18080848407511 34.003355573935174 a75.96189963625567,75.96189963625567 0 0,0 -0.8177916606687767,1.0203208379004836 l -42.58909891135148 -34.7416042454139" fill="#42ffd8" stroke="none" /><path d="M 115.32070863581623 114.36230785411682 l 18.503756167142097 17.346236969008768 a46.36298344592086,46.36298344592086 0 0,0 -0.5508219346801322,0.5775345963550442 l -18.202427681082998 -17.66217868194632" fill="#e9ff1a" stroke="none" /><path d="M 113.20401910651253 116.32954008644616 l 3.908471990737042 4.8336456903499405 a27.216130947962288,27.216130947962288 0 0,0 -0.3668248543830544,0.2914278496282019 l -3.8246896436366367 -4.900207453983269" fill="#ff0000" stroke="none" /><path d="M 111.1453310114006 117.79835938074945 l 16.686970616059586 26.647992751119865 a52.441541088263676,52.441541088263676 0 0,0 -0.7691945448947468,0.47250211386633206 l -16.225796871232532 -26.931283331814576" fill="#9dff22" stroke="none" /><line stroke="#e1ed5e" stroke-width="0.3" x1="143.8653032363475" x2="146.44561519142675" y1="172.8068346515853" y2="177.08958963109032" /><path d="M 144.38136562736335 173.6633856474863 a86.0,86.0 0 0,1 -40.68145358897372,12.25698825130547" fill="none" id="id78" stroke="none" /><text fill="#e1ed5e" style="font-size:6.75px; font-family:Arial;" text-anchor="middle"><textPath startOffset="21.466115282336833" xlink:href="#id78">June</textPath></text><path d="M 109.2508944713604 118.85261126421891 l 9.743620830442948 19.85674967874471 a43.11851384455497,43.11851384455497 0 0,0 -0.6691322588855736,0.32122414736548277 l -9.400375903557142 -20.02152810260975" fill="#ffea16" stroke="none" /><path d="M 104.13013068566511 120.58985236759428 l 3.1099384314485934 15.503909694209227 a36.81274589859699,36.81274589859699 0 0,0 -0.6223674757402188,0.11927820797268944 l -2.8426033411366705 -15.555145100530385" fill="#ff920d" stroke="none" /><path d="M 101.62511606390274 120.93702456842531 l 1.9635964585501298 25.29780377433871 a46.373895776111645,46.373895776111645 0 0,0 -0.7963882735534537,0.054923598056245124 l -1.5278454242177457 -25.327855716911237" fill="#e9ff1a" stroke="none" /><line stroke="#e1ed5e" stroke-width="0.3" x1="102.19456741930631" x2="102.32365962044197" y1="184.97166512339345" y2="189.96999836594603" /><path d="M 102.22038585953345 185.97133177190398 a86.0,86.0 0 0,1 -42.740103519485714,-10.115201625700543" fill="none" id="id79" stroke="none" /><text fill="#e1ed5e" style="font-size:6.75px; font-family:Arial;" text-anchor="middle"><textPath startOffset="22.20632615414155" xlink:href="#id79">July</textPath></text><line stroke="#e1ed5e" stroke-width="0.3" x1="58.666819895761336" x2="56.23545636021788" y1="174.27360380694188" y2="178.64263932499728" /><path d="M 58.180547188652646 175.14741091055294 a86.0,86.0 0 0,1 -31.652253787137756,-30.449443065178592" fill="none" id="id80" stroke="none" /><text fill="#e1ed5e" style="font-size:6.75px; font-family:Arial;" text-anchor="middle"><textPath startOffset="22.20632615414155" xlink:href="#id80">August</textPath></text><line stroke="#e1ed5e" stroke-width="0.3" x1="26.63291911575756" x2="22.317208475507996" y1="142.92168965132927" y2="145.44649492493687" /><path d="M 25.769776987707644 143.4266507060508 a86.0,86.0 0 0,1 -11.730757126820373,-40.83630448921669" fill="none" id="id81" stroke="none" /><text fill="#e1ed5e" style="font-size:6.75px; font-family:Arial;" text-anchor="middle"><textPath startOffset="21.46611528233685" xlink:href="#id81">September</textPath></text><path d="M 79.18660465613746 102.79330883721812 l -26.06850342145979 3.4985825127127526 a47.30222329448445,47.30222329448445 0 0,0 -0.10135850750097065,-0.8079270323078159 l 26.124863438207612 -3.049337726117528" fill="#ddff1b" stroke="none" /><line stroke="#e1ed5e" stroke-width="0.3" x1="15.007084014347285" x2="10.007500721073583" y1="101.09737516637583" y2="101.16192664675087" /><path d="M 14.007167355692545 101.11028546245083 a86.0,86.0 0 0,1 10.666146001902534,-42.60595125391555" fill="none" id="id82" stroke="none" /><text fill="#e1ed5e" style="font-size:6.75px; font-family:Arial;" text-anchor="middle"><textPath startOffset="22.20632615414155" xlink:href="#id82">October</textPath></text><path d="M 79.12142395522702 97.74499172005258 l -32.46827035245625 -3.506763024612026 a53.65709672630094,53.65709672630094 0 0,0 0.10708333250721702,-0.9174245982327102 l 32.403096666945444 4.065131361169598" fill="#8eff24" stroke="none" /><path d="M 79.21141760316559 97.0276538004421 l -21.901236832890955 -3.131433246538918 a43.123970009650364,43.123970009650364 0 0,0 0.11139148688208617,-0.7339307218393258 l 21.844089452569566 3.5079630807703364" fill="#ffea16" stroke="none" /><path d="M 79.54389044137918 95.25157060432595 l -30.656451176366048 -7.116211101419094 a52.471549996288324,52.471549996288324 0 0,0 0.21180315996000076,-0.8780608374484781 l 30.52941521614523 7.642857170526969" fill="#9cff22" stroke="none" /><path d="M 79.71946130924805 94.55025226153421 l -28.17912426279784 -7.57224061277807 a50.178791477989755,50.178791477989755 0 0,0 0.2313319453362554,-0.8322240895181774 l 28.044605546895223 8.05617600571519" fill="#b8ff1f" stroke="none" /><path d="M 80.2630227832202 92.82701384747504 l -14.663544074666808 -5.329154380595941 a36.601904090267986,36.601904090267986 0 0,0 0.2203006061482563,-0.590296097906899 l 14.569638880016923 5.580773615532182" fill="#ff8f0d" stroke="none" /><path d="M 80.52162464483688 92.15188598940014 l -19.205091045006057 -7.738003881581712 a41.70536708484893,41.70536708484893 0 0,0 0.2740207713409174,-0.663563032934642 l 19.06904858677894 8.067441484969665" fill="#ffd714" stroke="none" /><line stroke="#e1ed5e" stroke-width="0.3" x1="26.266209847984243" x2="21.928928074336255" y1="57.711370442889674" y2="55.22380399835377" /><path d="M 25.398753493254645 57.213857153982495 a86.0,86.0 0 0,1 29.58750427330803,-30.492523968695096" fill="none" id="id83" stroke="none" /><text fill="#e1ed5e" style="font-size:6.75px; font-family:Arial;" text-anchor="middle"><textPath startOffset="21.46611528233685" xlink:href="#id83">November</textPath></text><line stroke="#e1ed5e" stroke-width="0.3" x1="56.762969772571076" x2="54.21961505331055" y1="26.818313649435495" y2="22.513508569990535" /><path d="M 56.25429882871897 25.957352633546506 a86.0,86.0 0 0,1 42.265352541879196,-11.944610805530505" fill="none" id="id84" stroke="none" /><text fill="#e1ed5e" style="font-size:6.75px; font-family:Arial;" text-anchor="middle"><textPath startOffset="22.20632615414155" xlink:href="#id84">December</textPath></text><path d="M 91.90106846888425 80.62456947434976 l -5.667027586095846 -13.557479632898758 a35.69423205404202,35.69423205404202 0 0,0 0.5689254871973018,-0.23207899109603136 l 5.432818229310163 13.653019510178366" fill="#ff820b" stroke="none" /></svg>