<?xml version="1.0" encoding="utf-8" ?>
<svg baseProfile="full" height="200mm" version="1.1" viewBox="0,0,200,200" width="200mm" xmlns="http://www.w3.org/2000/svg" xmlns:ev="http://www.w3.org/2001/xml-events" xmlns:xlink="http://www.w3.org/1999/xlink"><defs /><rect fill="#1a1a1a" height="200" width="200" x="0" y="0" /><text alignment-baseline="middle" fill="#e1ed5e" style="dominant-baseline: central; font-size:9.0px; font-family:Arial;" text-anchor="middle" x="100.0" y="100.0">2020</text><line stroke="#e1ed5e" stroke-width="0.3" x1="100.0" x2="100.0" y1="15.0" y2="10.0" /><path d="M 100.0 14.0 a86.0,86.0 0 0,1 42.35913384403234,11.155469271406648" fill="none" id="id85" stroke="none" /><text fill="#e1ed5e" style="font-size:6.75px; font-family:Arial;" text-anchor="middle"><textPath startOffset="22.145653131862478" xlink:href="#id85">January</textPath></text><path d="M 107.74402155503746 80.48000691201159 l 4.000120932569684 -10.082917822469852 a31.847405186949658,31.847405186949658 0 0,0 0.506442804040109,0.20596587948906986 l -4.172618197800232 10.012764686401487" fill="#ff790b" stroke="none" /><line stroke="#e1ed5e" stroke-width="0.3" x1="143.13028292997686" x2="145.6673583964461" y1="26.7553504044142" y2="22.446841604673864" /><path d="M 143.63769802327073 25.89364864446614 a86.0,86.0 0 0,1 29.32050498858742,28.57503671076993" fill="none" id="id86" stroke="none" /><text fill="#e1ed5e" style="font-size:6.75px; font-family:Arial;" text-anchor="middle"><textPath startOffset="20.669276256404974" xlink:href="#id86">February</textPath></text><path d="M 113.86319453409587 84.22622945171908 l 41.5895836022876 -47.32131164484275 a84.0,84.0 0 0,0 1.0749398927064977,0.9612178804664522 l -42.39578852181747 46.600398234492914" fill="#4dd2ff" stroke="none" /><path d="M 114.91283532996326 85.21462403516908 l 9.398283319434887 -9.31795659425325 a34.23450204748013,34.23450204748013 0 0,0 0.41018345577026466,0.4208843608104664 l -9.556853576355964 9.155249541375042" fill="#ff990e" stroke="none" /><path d="M 115.41159269507618 85.73525988315684 l 8.632438827785622 -7.990056504169726 a32.7626528918984,32.7626528918984 0 0,0 0.3784902341949553,0.4160270691102897 l -8.768326762822454 7.8406918595017645" fill="#ff850c" stroke="none" /><path d="M 115.8921839302757 86.27271002978787 l 10.706201451580386 -9.247761821165897 a35.1472205122715,35.1472205122715 0 0,0 0.3904779820536802,0.45998208101631816 l -10.863373997141178 9.062612957700027" fill="#ffa60f" stroke="none" /><path d="M 116.7966241395341 87.39550010848427 l 9.69374209734732 -7.274364788982226 a33.11961298610925,33.11961298610925 0 0,0 0.3373437299949556,0.45767155847740665 l -9.817187846926101 7.106886921235945" fill="#ff8a0c" stroke="none" /><path d="M 117.62189284568427 88.57770195909679 l 9.904302737775769 -6.41984937423535 a32.80295211840591,32.80295211840591 0 0,0 0.30222813796926573,0.47515283164711275 l -10.013048567370925 6.248882867909566" fill="#ff860c" stroke="none" /><line stroke="#e1ed5e" stroke-width="0.3" x1="172.87174338648825" x2="177.1583165268699" y1="56.24261187166439" y2="53.66864786411523" /><path d="M 173.72905801456457 55.72781907015455 a86.0,86.0 0 0,1 12.242430191666344,42.057860355516425" fill="none" id="id87" stroke="none" /><text fill="#e1ed5e" style="font-size:6.75px; font-family:Arial;" text-anchor="middle"><textPath startOffset="22.145653131862474" xlink:href="#id87">March</textPath></text><path d="M 118.18653347947321 89.5 l 11.989590112134687 -6.922193078714239 a34.844386157428474,34.844386157428474 0 0,0 0.29462859037477723,0.5205804884259614 l -12.10665206753084 6.715355820189159" fill="#ffa20e" stroke="none" /><line stroke="#e1ed5e" stroke-width="0.3" x1="184.99686870605535" x2="189.99668451229388" y1="99.2704041080226" y2="99.22748670261217" /><path d="M 185.99683186730306 99.26182062694052 a86.0,86.0 0 0,1 -10.086455211305974,41.156179273409016" fill="none" id="id88" stroke="none" /><text fill="#e1ed5e" style="font-size:6.75px; font-family:Arial;" text-anchor="middle"><textPath startOffset="21.40746469413373" xlink:href="#id88">April</textPath></text><line stroke="#e1ed5e" stroke-width="0.3" x1="174.33088141563837" x2="178.70328620479359" y1="141.23008692659167" y2="143.65538615756765" /><path d="M 175.20536237346943 141.71514677278685 a86.0,86.0 0 0,1 -30.301960400862466,31.631185727798858" fill="none" id="id89" stroke="none" /><text fill="#e1ed5e" style="font-size:6.75px; font-family:Arial;" text-anchor="middle"><textPath startOffset="22.145653131862474" xlink:href="#id89">May</textPath></text><path d="M 113.86319453409587 115.77377054828091 l 1.6254923034665478 1.849511853838393 a23.462299601209754,23.462299601209754 0 0,0 -0.30480937062675195,0.2632870746140854 l -1.59350345307694 -1.877143060917196" fill="#ff0000" stroke="none" /><line stroke="#e1ed5e" stroke-width="0.3" x1="143.1302829299769" x2="145.66735839644613" y1="173.24464959558577" y2="177.55315839532614" /><path d="M 143.63769802327073 174.10635135553383 a86.0,86.0 0 0,1 -40.68552437913181,11.842963189579606" fill="none" id="id90" stroke="none" /><text fill="#e1ed5e" style="font-size:6.75px; font-family:Arial;" text-anchor="middle"><textPath startOffset="21.407464694133747" xlink:href="#id90">June</textPath></text><path d="M 108.07796709384702 119.3841803445677 l 4.713361807746456 11.310352499473195 a33.25315686641865,33.25315686641865 0 0,0 -0.5287973041369032,0.2150572600679759 l -4.518510042419112 -11.389597016120462" fill="#ff8c0c" stroke="none" /><path d="M 103.2317021107853 120.74984581791261 l 1.6983237680397576 10.90445688608287 a32.035917886679336,32.035917886679336 0 0,0 -0.5441146489996291,0.079966115785946 l -1.510884013432443 -10.932004075167699" fill="#ff7b0b" stroke="none" /><path d="M 102.51750503828377 120.84855314841334 l 1.6313820754735673 13.51018384815872 a34.60832374274015,34.60832374274015 0 0,0 -0.5904247572762119,0.06615832556099273 l -1.3992214165965562 -13.536197934226683" fill="#ff9e0e" stroke="none" /><line stroke="#e1ed5e" stroke-width="0.3" x1="101.45913802915013" x2="101.54496967792366" y1="184.9874750549273" y2="189.98673829345242" /><path d="M 101.47630435890484 185.9873277026323 a86.0,86.0 0 0,1 -42.54439059252881,-10.42667462771756" fill="none" id="id91" stroke="none" /><text fill="#e1ed5e" style="font-size:6.75px; font-family:Arial;" text-anchor="middle"><textPath startOffset="22.145653131862474" xlink:href="#id91">July</textPath></text><path d="M 99.27912038922189 120.98762331915562 l -0.46729159385492086 13.604684895233822 a34.61270775901293,34.61270775901293 0 0,0 -0.5936478900308537,-0.025493794707586868 l 0.7007652444866134 -13.594658532100407" fill="#ff9e0e" stroke="none" /><path d="M 97.84075906011543 120.88869738790638 l -1.140306681193329 11.031432737714134 a32.090212242057646,32.090212242057646 0 0,0 -0.5474652836352274,-0.06134462693463323 l 1.3295078664293556 -11.01023235027253" fill="#ff7c0b" stroke="none" /><line stroke="#e1ed5e" stroke-width="0.3" x1="58.13341422392154" x2="55.67067388415222" y1="173.97424548756322" y2="178.32567169271397" /><path d="M 57.64086615596768 174.84453072859336 a86.0,86.0 0 0,1 -31.369924170532247,-30.572349798747897" fill="none" id="id92" stroke="none" /><text fill="#e1ed5e" style="font-size:6.75px; font-family:Arial;" text-anchor="middle"><textPath startOffset="22.145653131862474" xlink:href="#id92">August</textPath></text><path d="M 89.03521579738668 117.91015095944536 l -7.120404025009427 11.630644855716042 a34.637157080534216,34.637157080534216 0 0,0 -0.504442148189179,-0.3148092088500147 l 7.319010301988318 -11.506699850024479" fill="#ff9f0e" stroke="none" /><path d="M 83.64595745247003 113.17365903436017 l -10.73108475017459 8.64420226110844 a34.77963760939967,34.77963760939967 0 0,0 -0.3705415458735225,-0.4681671385739135 l 10.877892726689675 -8.458715178619846" fill="#ffa10e" stroke="none" /><path d="M 83.20337586046588 112.60449989151573 l -9.362377066347387 7.0257022921260734 a32.705323448331235,32.705323448331235 0 0,0 -0.3331239349740784,-0.4519465960964901 l 9.481603020905295 -6.863949386760703" fill="#ff850c" stroke="none" /><path d="M 82.18462484594161 111.11811171558189 l -13.853536687726564 8.645631496284771 a37.329954768086075,37.329954768086075 0 0,0 -0.3346044463230721,-0.5465512165683613 l 13.999909098505041 -8.406543163591852" fill="#ffc312" stroke="none" /><line stroke="#e1ed5e" stroke-width="0.3" x1="26.387840678322732" x2="22.057713659400548" y1="142.50000000000003" y2="145.00000000000006" /><path d="M 25.521815274538298 143.00000000000003 a86.0,86.0 0 0,1 -11.493303480769221,-40.785679425670985" fill="none" id="id93" stroke="none" /><text fill="#e1ed5e" style="font-size:6.75px; font-family:Arial;" text-anchor="middle"><textPath startOffset="21.40746469413373" xlink:href="#id93">September</textPath></text><path d="M 80.9802524753101 108.90220220490708 l -18.43845989525856 8.630130243400151 a41.35819125873191,41.35819125873191 0 0,0 -0.29544624734788616,-0.645603370013546 l 18.583890607461502 -8.312337891171916" fill="#fff617" stroke="none" /><path d="M 80.68587082218212 108.24405325689762 l -3.062976999098688 1.3074027450444412 a24.330334823220834,24.330334823220834 0 0,0 -0.1606661254168898,-0.3855402125512668 l 3.0849689690520634 -1.2546300230518932" fill="#ff0d01" stroke="none" /><path d="M 79.56144815229197 104.8234425847677 l -2.4499676728402426 0.5781856998741836 a23.517268420630035,23.517268420630035 0 0,0 -0.08935345646662714,-0.39370781601111915 l 2.459531990864536 -0.5360435499240381" fill="#ff0100" stroke="none" /><path d="M 79.48165901384964 104.47187691870673 l -20.631303616047624 4.496496598126959 a42.11561437786045,42.11561437786045 0 0,0 -0.14789056258388764,-0.7077098789502212 l 20.70545188945588 -4.141670267891329" fill="#feff18" stroke="none" /><path d="M 79.34024301695615 103.76489593502545 l -8.231997754063253 1.5001442130634974 a29.36756952064877,29.36756952064877 0 0,0 -0.08612414898755483,-0.4967412047582521 l 8.25653672054304 -1.3586099753846528" fill="#ff5608" stroke="none" /><line stroke="#e1ed5e" stroke-width="0.3" x1="15.003131293944662" x2="10.003315487706104" y1="100.72959589197737" y2="100.7725132973878" /><path d="M 14.003168132696942 100.73817937305945 a86.0,86.0 0 0,1 10.791469493833604,-42.45332614584628" fill="none" id="id94" stroke="none" /><text fill="#e1ed5e" style="font-size:6.75px; font-family:Arial;" text-anchor="middle"><textPath startOffset="22.145653131862435" xlink:href="#id94">October</textPath></text><path d="M 79.00696218219943 99.45929381324524 l -13.677472908892156 -0.35228318479652276 a34.682008939325,34.682008939325 0 0,0 0.020438129342960815,-0.5950338358652069 l 13.669410092552345 0.5870232852258682" fill="#ff9f0e" stroke="none" /><path d="M 79.83685265289637 94.1308016681162 l -5.233956512468326 -1.523528460279994 a26.45118700318497,26.45118700318497 0 0,0 0.1306483074401194,-0.4348857244090263 l 5.207031885024577 1.6131517882797437" fill="#ff2c04" stroke="none" /><path d="M 79.94057633289273 93.78553927170692 l -5.221205500227093 -1.6175428105003076 a26.466025212108235,26.466025212108235 0 0,0 0.13817191411313162,-0.4328215529972534 l 5.192668870336704 1.7069333971889527" fill="#ff2c04" stroke="none" /><line stroke="#e1ed5e" stroke-width="0.3" x1="26.387840678322718" x2="22.05771365940052" y1="57.49999999999999" y2="54.99999999999999" /><path d="M 25.521815274538284 56.99999999999999 a86.0,86.0 0 0,1 29.574782752854787,-30.34633250058573" fill="none" id="id95" stroke="none" /><text fill="#e1ed5e" style="font-size:6.75px; font-family:Arial;" text-anchor="middle"><textPath startOffset="21.40746469413373" xlink:href="#id95">November</textPath></text><path d="M 88.12776184653039 82.6780497279521 l -2.1013699477163295 -3.0659615539198466 a24.716971335278217,24.716971335278217 0 0,0 0.35204466063723944,-0.23687135893075345 l 2.0484289989821005 3.1015825869077096" fill="#ff1302" stroke="none" /><path d="M 88.72937992617638 82.28071324371311 l -4.738438597158784 -7.449612508465098 a29.82890292535396,29.82890292535396 0 0,0 0.43441659587729226,-0.27110808513994566 l 4.609857872491793 7.529856390446579" fill="#ff5d08" stroke="none" /><line stroke="#e1ed5e" stroke-width="0.3" x1="56.869717070023135" x2="54.33264160355391" y1="26.7553504044142" y2="22.446841604673864" /><path d="M 56.362301976729285 25.89364864446614 a86.0,86.0 0 0,1 42.16139366436587,-11.88097634709845" fill="none" id="id96" stroke="none" /><text fill="#e1ed5e" style="font-size:6.75px; font-family:Arial;" text-anchor="middle"><textPath startOffset="22.145653131862474" xlink:href="#id96">December</textPath></text><path d="M 89.65649057296885 81.72400993836675 l -2.5295822883214543 -4.469529523570586 a26.13570644755507,26.13570644755507 0 0,0 0.392353969249417,-0.21763213283709917 l 2.4524841309159346 4.5122945718408305" fill="#ff2803" stroke="none" /><path d="M 90.61103034731259 81.2157712731953 l -2.663428775763022 -5.328641711730939 a26.95720365067045,26.95720365067045 0 0,0 0.41570543384881864,-0.20334235896039973 l 2.57156309265215 5.373577820788554" fill="#ff3304" stroke="none" /></svg>