<?xml version="1.0" encoding="utf-8" ?>
<svg baseProfile="full" height="200mm" version="1.1" viewBox="0,0,200,200" width="200mm" xmlns="http://www.w3.org/2000/svg" xmlns:ev="http://www.w3.org/2001/xml-events" xmlns:xlink="http://www.w3.org/1999/xlink"><defs /><rect fill="#1a1a1a" height="200" width="200" x="0" y="0" /><text alignment-baseline="middle" fill="#e1ed5e" style="dominant-baseline: central; font-size:9.0px; font-family:Arial;" text-anchor="middle" x="100.0" y="100.0">2013</text><line stroke="#e1ed5e" stroke-width="0.3" x1="100.0" x2="100.0" y1="15.0" y2="10.0" /><path d="M 100.0 14.0 a86.0,86.0 0 0,1 42.46469731375804,11.215312516191453" fill="none" id="id1" stroke="none" /><text fill="#e1ed5e" style="font-size:6.75px; font-family:Arial;" text-anchor="middle"><textPath startOffset="22.20632615414155" xlink:href="#id1">January</textPath></text><line stroke="#e1ed5e" stroke-width="0.3" x1="143.23703022742887" x2="145.7803849466894" y1="26.81831364943548" y2="22.513508569990506" /><path d="M 143.74570117128098 25.957352633546492 a86.0,86.0 0 0,1 28.547481713284135,27.462654790039103" fill="none" id="id2" stroke="none" /><text fill="#e1ed5e" style="font-size:6.75px; font-family:Arial;" text-anchor="middle"><textPath startOffset="19.985693538727396" xlink:href="#id2">February</textPath></text><line stroke="#e1ed5e" stroke-width="0.3" x1="172.23445277983987" x2="176.4835382374775" y1="55.19839476539836" y2="52.563006222186495" /><path d="M 173.08426987136738 54.67131705675599 a86.0,86.0 0 0,1 12.851231095245387,41.99856678651699" fill="none" id="id3" stroke="none" /><text fill="#e1ed5e" style="font-size:6.75px; font-family:Arial;" text-anchor="middle"><textPath startOffset="22.20632615414155" xlink:href="#id3">March</textPath></text><line stroke="#e1ed5e" stroke-width="0.3" x1="184.98032266829074" x2="189.97916517819016" y1="98.17113171792111" y2="98.06355123074" /><path d="M 185.9800911702706 98.14961562048488 a86.0,86.0 0 0,1 -9.607161424134198,41.387399972396054" fill="none" id="id4" stroke="none" /><text fill="#e1ed5e" style="font-size:6.75px; font-family:Arial;" text-anchor="middle"><textPath startOffset="21.466115282336823" xlink:href="#id4">April</textPath></text><line stroke="#e1ed5e" stroke-width="0.3" x1="174.80103733775053" x2="179.2010983576182" y1="140.37084112569926" y2="142.7455964860345" /><path d="M 175.68104954172406 140.8457921977663 a86.0,86.0 0 0,1 -30.038265399797805,32.042727171017184" fill="none" id="id5" stroke="none" /><text fill="#e1ed5e" style="font-size:6.75px; font-family:Arial;" text-anchor="middle"><textPath startOffset="22.206326154141568" xlink:href="#id5">May</textPath></text><line stroke="#e1ed5e" stroke-width="0.3" x1="143.8653032363475" x2="146.44561519142675" y1="172.8068346515853" y2="177.08958963109032" /><path d="M 144.38136562736335 173.6633856474863 a86.0,86.0 0 0,1 -40.68145358897372,12.25698825130547" fill="none" id="id6" stroke="none" /><text fill="#e1ed5e" style="font-size:6.75px; font-family:Arial;" text-anchor="middle"><textPath startOffset="21.466115282336833" xlink:href="#id6">June</textPath></text><line stroke="#e1ed5e" stroke-width="0.3" x1="102.19456741930631" x2="102.32365962044197" y1="184.97166512339345" y2="189.96999836594603" /><path d="M 102.22038585953345 185.97133177190398 a86.0,86.0 0 0,1 -42.740103519485714,-10.115201625700543" fill="none" id="id7" stroke="none" /><text fill="#e1ed5e" style="font-size:6.75px; font-family:Arial;" text-anchor="middle"><textPath startOffset="22.20632615414155" xlink:href="#id7">July</textPath></text><line stroke="#e1ed5e" stroke-width="0.3" x1="58.666819895761336" x2="56.23545636021788" y1="174.27360380694188" y2="178.64263932499728" /><path d="M 58.180547188652646 175.14741091055294 a86.0,86.0 0 0,1 -31.652253787137756,-30.449443065178592" fill="none" id="id8" stroke="none" /><text fill="#e1ed5e" style="font-size:6.75px; font-family:Arial;" text-anchor="middle"><textPath startOffset="22.20632615414155" xlink:href="#id8">August</textPath></text><line stroke="#e1ed5e" stroke-width="0.3" x1="26.63291911575756" x2="22.317208475507996" y1="142.92168965132927" y2="145.44649492493687" /><path d="M 25.769776987707644 143.4266507060508 a86.0,86.0 0 0,1 -11.730757126820373,-40.83630448921669" fill="none" id="id9" stroke="none" /><text fill="#e1ed5e" style="font-size:6.75px; font-family:Arial;" text-anchor="middle"><textPath startOffset="21.46611528233685" xlink:href="#id9">September</textPath></text><line stroke="#e1ed5e" stroke-width="0.3" x1="15.007084014347285" x2="10.007500721073583" y1="101.09737516637583" y2="101.16192664675087" /><path d="M 14.007167355692545 101.11028546245083 a86.0,86.0 0 0,1 10.666146001902534,-42.60595125391555" fill="none" id="id10" stroke="none" /><text fill="#e1ed5e" style="font-size:6.75px; font-family:Arial;" text-anchor="middle"><textPath startOffset="22.20632615414155" xlink:href="#id10">October</textPath></text><path d="M 79.16333360222342 97.38593545837743 l -24.966102069198524 -3.1321230045025614 a46.16180532165713,46.16180532165713 0 0,0 0.10569734717041196,-0.7875680068538926 l 24.908488722970276 3.5614093534211135" fill="#dcff1b" stroke="none" /><path d="M 79.62865764111835 94.90015583598534 l -6.039358553145041 -1.5119174244411238 a27.22573256988885,27.22573256988885 0 0,0 0.11772363737447387,-0.4536371972978489 l 6.012438583900259 1.6156510472878365" fill="#ff1c02" stroke="none" /><path d="M 79.71946130924805 94.55025226153421 l -43.435462925817966 -11.671894886950573 a65.97635567531155,65.97635567531155 0 0,0 0.3041611456756821,-1.0942294725391672 l 43.228115009575916 12.417835662908683" fill="#35ff68" stroke="none" /><path d="M 80.02781315780177 93.51064311812611 l -25.068491574986837 -8.145246667561889 a47.35857190973392,47.35857190973392 0 0,0 0.25858390563210537,-0.7731329646592454 l 24.924570375582956 8.575552735143456" fill="#ceff1d" stroke="none" /><path d="M 80.14247586403 93.16781622104843 l -10.967453040809566 -3.7734641161080438 a32.598450656786795,32.598450656786795 0 0,0 0.18712584747852803,-0.5290299694594257 l 10.900874112521228 3.9616917119940807" fill="#ff6b09" stroke="none" /><path d="M 80.2630227832202 92.82701384747504 l -38.669584530147574 -14.053641107860452 a62.14415628157629,62.14415628157629 0 0,0 0.37403505740138093,-1.0022279953048858 l 38.42194488424456 14.717192240194679" fill="#30ff38" stroke="none" /><path d="M 80.38941819471856 92.48833698450439 l -10.743877522556678 -4.115348959584092 a32.50508588750421,32.50508588750421 0 0,0 0.2046372388560796,-0.52077945203807 l 10.671446733818907 4.299677416517925" fill="#ff6a09" stroke="none" /><path d="M 80.52162464483688 92.15188598940014 l -39.965768605113745 -16.102775658394133 a64.08784102391377,64.08784102391377 0 0,0 0.4210824855040489,-1.0196846386111946 l 39.6826644327235 16.788334867458637" fill="#33ff51" stroke="none" /><path d="M 80.65960295795068 91.81776055985345 l -9.25134115160608 -3.9139159491061366 a31.04520040417649,31.04520040417649 0 0,0 0.212451605375044,-0.49036759669265695 l 9.182598836388356 4.072582690385393" fill="#ff5507" stroke="none" /><path d="M 80.803312248108 91.48605970444005 l -4.038481364038985 -1.7911105114876185 a25.417851128326035,25.417851128326035 0 0,0 0.180827050778208,-0.3984284368558888 l 4.007051996297425 1.8603609571855784" fill="#ff0000" stroke="none" /><path d="M 80.95270993114464 91.15688171328213 l -5.854684040699698 -2.71816428038354 a27.45490063994611,27.45490063994611 0 0,0 0.20269797062440462,-0.4269336205623814 l 5.807027876233541 2.818540316586454" fill="#ff1f03" stroke="none" /><path d="M 81.10775173730289 90.83032412892265 l -15.5083150777519 -7.527226013132263 a38.238531492084874,38.238531492084874 0 0,0 0.2925065335032872,-0.5896753225520088 l 15.3764485312952 7.793060924183234" fill="#ffba11" stroke="none" /><path d="M 81.26839172434947 90.50648371742162 l -38.39569607408351 -19.459629973902153 a64.04540249242169,64.04540249242169 0 0,0 0.5068448449382955,-0.9790629149468217 l 38.055041795985105 20.11766561110931" fill="#33ff50" stroke="none" /><path d="M 81.43458229118936 90.18545643968196 l -4.138293512863212 -2.187694485759003 a25.68097002357696,25.68097002357696 0 0,0 0.20996259796482739,-0.3890288062365975 l 4.100022815679913 2.2586042753280733" fill="#ff0400" stroke="none" /><path d="M 81.6062741919709 89.86733742301443 l -23.667130795497748 -13.037654960121348 a48.020613001010446,48.020613001010446 0 0,0 0.40507069778963617,-0.7205755723646887 l 23.439202456415682 13.443114042420822" fill="#c6ff1e" stroke="none" /><line stroke="#e1ed5e" stroke-width="0.3" x1="26.266209847984243" x2="21.928928074336255" y1="57.711370442889674" y2="55.22380399835377" /><path d="M 25.398753493254645 57.213857153982495 a86.0,86.0 0 0,1 29.58750427330803,-30.492523968695096" fill="none" id="id11" stroke="none" /><text fill="#e1ed5e" style="font-size:6.75px; font-family:Arial;" text-anchor="middle"><textPath startOffset="21.46611528233685" xlink:href="#id11">November</textPath></text><path d="M 82.34701348167596 88.62581576622439 l -31.611272523853696 -20.36779652990616 a58.60478275513641,58.60478275513641 0 0,0 0.5536850515589141,-0.8433003196721598 l 31.25599083693686 20.908914913555982" fill="#4dff2c" stroke="none" /><path d="M 85.57189188830299 84.74124197986013 l -25.06962752664957 -26.512927205893412 a57.48864937689458,57.48864937689458 0 0,0 0.7248829107754019,-0.6736996649722061 l 24.609536732079313 26.940531456940267" fill="#59ff2a" stroke="none" /><path d="M 86.93701828274178 83.55741782278169 l -19.03877887737279 -23.964412797999017 a51.606668912091614,51.606668912091614 0 0,0 0.7002962179339166,-0.5465923060119668 l 18.623450104279446 24.288583493234206" fill="#9bff22" stroke="none" /><path d="M 88.09926311788651 82.69761687909137 l -18.643552504576036 -27.105707097329137 a53.8983496126642,53.8983496126642 0 0,0 0.7689377391994906,-0.5191901939716098 l 18.174210070970005 27.42260920359941" fill="#81ff25" stroke="none" /><line stroke="#e1ed5e" stroke-width="0.3" x1="56.762969772571076" x2="54.21961505331055" y1="26.818313649435495" y2="22.513508569990535" /><path d="M 56.25429882871897 25.957352633546506 a86.0,86.0 0 0,1 42.265352541879196,-11.944610805530505" fill="none" id="id12" stroke="none" /><text fill="#e1ed5e" style="font-size:6.75px; font-family:Arial;" text-anchor="middle"><textPath startOffset="22.20632615414155" xlink:href="#id12">December</textPath></text><path d="M 91.23893434514133 80.91482961587045 l -12.896383071065797 -28.093576506163625 a51.91222633883463,51.91222633883463 0 0,0 0.8153133579403692,-0.3658073378938995 l 12.410887594658654 28.311404174574054" fill="#97ff23" stroke="none" /><path d="M 91.90106846888425 80.62456947434976 l -13.211433206971988 -31.60629340580304 a55.25638262041091,55.25638262041091 0 0,0 0.8807239319641812,-0.3592694055091478 l 12.665425405419425 31.829023697495764" fill="#71ff27" stroke="none" /><path d="M 92.91201910852362 80.23233633223022 l -21.26394267442915 -59.30299100330936 a84.0,84.0 0 0,0 1.3652719837468588,-0.4763165873111608 l 20.239988686619004 59.66022844379273" fill="#4dd2ff" stroke="none" /><path d="M 93.59665428221793 80.00007090966166 l -12.543138439028967 -39.176688313772225 a62.13566857527787,62.13566857527787 0 0,0 1.0214353175516302,-0.31736492525563903 l 11.866917748766609 39.386793373910386" fill="#30ff38" stroke="none" /><path d="M 94.28887869178378 79.79150937346287 l -12.661030801845472 -44.80036554525676 a67.55506904681711,67.55506904681711 0 0,0 1.1217426271553474,-0.30661463407478856 l 11.887990285466403 45.01166672015784" fill="#37ff7b" stroke="none" /><path d="M 95.692805502759 79.44645832069477 l -3.7594017582183685 -17.939524387925747 a39.329201751431455,39.329201751431455 0 0,0 0.6637900090262494,-0.13315003119847688 l 3.450045339724983 18.001578375201433" fill="#ffc912" stroke="none" /><path d="M 96.04723909329186 79.375362276772 l -5.807323366473867 -30.30133706592138 a51.852812394745705,51.852812394745705 0 0,0 0.8780530034337114,-0.16045857400395855 l 5.284875241937262 30.396811121276073" fill="#98ff23" stroke="none" /><path d="M 96.40284397218896 79.31037775812273 l -7.0491657800640475 -40.544412303028075 a62.152643987874704,62.152643987874704 0 0,0 1.055620612939166,-0.17418644604139766 l 6.350215960985996 40.6597450120091" fill="#30ff38" stroke="none" /><path d="M 97.47563105711357 79.15227682838746 l -5.775354827029417 -47.69627632721298 a69.04466150218929,69.04466150218929 0 0,0 1.1811019693565297,-0.13271056807053072 l 4.953486154163169 47.78862284875411" fill="#39ff8d" stroke="none" /><path d="M 98.55514903715128 79.0497635885617 l -1.4222706042511466 -20.622822814439065 a41.671808689794545,41.671808689794545 0 0,0 0.7160366699415551,-0.043193287342198294 l 1.0670718854699683 20.644249371161568" fill="#ffe815" stroke="none" /></svg>