<?xml version="1.0" encoding="utf-8" ?>
<svg baseProfile="full" height="200mm" version="1.1" viewBox="0,0,200,200" width="200mm" xmlns="http://www.w3.org/2000/svg" xmlns:ev="http://www.w3.org/2001/xml-events" xmlns:xlink="http://www.w3.org/1999/xlink"><defs /><rect fill="#1a1a1a" height="200" width="200" x="0" y="0" /><text alignment-baseline="middle" fill="#e1ed5e" style="dominant-baseline: central; font-size:9.0px; font-family:Arial;" text-anchor="middle" x="100.0" y="100.0">2014</text><line stroke="#e1ed5e" stroke-width="0.3" x1="100.0" x2="100.0" y1="15.0" y2="10.0" /><path d="M 100.0 14.0 a86.0,86.0 0 0,1 42.46469731375804,11.215312516191453" fill="none" id="id13" stroke="none" /><text fill="#e1ed5e" style="font-size:6.75px; font-family:Arial;" text-anchor="middle"><textPath startOffset="22.20632615414155" xlink:href="#id13">January</textPath></text><path d="M 100.36148047927253 79.00311137660856 l 0.19255513055463652 -11.184721892188671 a32.18637927498918,32.18637927498918 0 0,0 0.5538714371189053,0.014304865140872465 l -0.3850532028684096 11.179750234905438" fill="#ff7b0b" stroke="none" /><path d="M 110.05341064243156 81.56283822128135 l 1.9475061469150157 -3.571572590914945 a25.068035270796784,25.068035270796784 0 0,0 0.37706611792082323,0.20983688638211428 l -2.008696353907874 3.537520306972651" fill="#ff1502" stroke="none" /><line stroke="#e1ed5e" stroke-width="0.3" x1="143.23703022742887" x2="145.7803849466894" y1="26.81831364943548" y2="22.513508569990506" /><path d="M 143.74570117128098 25.957352633546492 a86.0,86.0 0 0,1 28.547481713284135,27.462654790039103" fill="none" id="id14" stroke="none" /><text fill="#e1ed5e" style="font-size:6.75px; font-family:Arial;" text-anchor="middle"><textPath startOffset="19.985693538727396" xlink:href="#id14">February</textPath></text><path d="M 111.2981086023043 82.29822771554956 l 5.460748200703614 -8.555849881976057 a31.149992025336644,31.149992025336644 0 0,0 0.4494987966777961,0.2923665209817131 l -5.607214023165691 8.460584436834816" fill="#ff6d0a" stroke="none" /><path d="M 111.90073688211348 82.69761687909136 l 5.680433296347491 -8.2587350816814 a31.023673357788965,31.023673357788965 0 0,0 0.437387791284268,0.3064180994069572 l -5.82175222721541 8.159732139510508" fill="#ff6b09" stroke="none" /><path d="M 113.34407831869373 83.78471172551755 l 7.28969950942151 -8.858204827382512 a32.4720317163754,32.4720317163754 0 0,0 0.4285418499913303,0.3588914751639009 l -7.441098896371958 8.731412194824792" fill="#ff7f0b" stroke="none" /><path d="M 113.89432698308785 84.25364557470407 l 6.758324236937712 -7.659166858921772 a31.214586798514432,31.214586798514432 0 0,0 0.39982766073960213,0.3589692215570494 l -6.889162885273304 7.541698628595425" fill="#ff6e0a" stroke="none" /><path d="M 115.19652480421416 85.50635884689758 l 18.34635246362622 -17.497780084720187 a46.35273075258037,46.35273075258037 0 0,0 0.5457099884734535,0.582125367174883 l -18.64482977407014 17.17938530066725" fill="#ccff1d" stroke="none" /><path d="M 115.68641384162765 86.03803664274999 l 6.040961670377332 -5.3768621901670075 a29.087265601859237,29.087265601859237 0 0,0 0.329666946643556,0.37686630870757143 l -6.132620480598736 5.272080325256488" fill="#ff5007" stroke="none" /><line stroke="#e1ed5e" stroke-width="0.3" x1="172.23445277983987" x2="176.4835382374775" y1="55.19839476539836" y2="52.563006222186495" /><path d="M 173.08426987136738 54.67131705675599 a86.0,86.0 0 0,1 12.851231095245387,41.99856678651699" fill="none" id="id15" stroke="none" /><text fill="#e1ed5e" style="font-size:6.75px; font-family:Arial;" text-anchor="middle"><textPath startOffset="22.20632615414155" xlink:href="#id15">March</textPath></text><path d="M 118.3937258080291 89.86733742301442 l 8.723074323140597 -4.805332517883251 a30.959078584611177,30.959078584611177 0 0,0 0.25311538326841965,0.4689843636318878 l -8.80449780562748 4.654467170918904" fill="#ff6a09" stroke="none" /><path d="M 119.97218684219823 93.5106431181261 l 11.896213366190752 -3.8653140332645397 a33.50841896602793,33.50841896602793 0 0,0 0.17351699095966536,0.5500962791358072 l -11.960985840918623 3.6599675877023135" fill="#ff8d0d" stroke="none" /><path d="M 120.53481517161879 95.60439243477599 l 14.844918220171824 -3.177648997002157 a36.18120713618447,36.18120713618447 0 0,0 0.1251192731845264,0.6101260112531908 l -14.897416789271348 2.9216473295855545" fill="#ffb210" stroke="none" /><line stroke="#e1ed5e" stroke-width="0.3" x1="184.98032266829074" x2="189.97916517819016" y1="98.17113171792111" y2="98.06355123074" /><path d="M 185.9800911702706 98.14961562048488 a86.0,86.0 0 0,1 -9.607161424134198,41.387399972396054" fill="none" id="id16" stroke="none" /><text fill="#e1ed5e" style="font-size:6.75px; font-family:Arial;" text-anchor="middle"><textPath startOffset="21.466115282336823" xlink:href="#id16">April</textPath></text><path d="M 120.49622156327973 104.57218783832717 l 9.830845089398293 2.1930125130357307 a31.072478297523297,31.072478297523297 0 0,0 -0.12094508529403493,0.5210282620197361 l -9.791639438173705 -2.361909432404032" fill="#ff6c09" stroke="none" /><path d="M 120.23288151984713 105.62410040840565 l 10.289546709266283 2.8601681768920297 a31.679669165394518,31.679669165394518 0 0,0 -0.15056496398660812,0.5241363919049677 l -10.238789108393574 -3.0368620443015795" fill="#ff740a" stroke="none" /><path d="M 120.02730092923936 106.31721596034902 l 14.204238495417133 4.4804460893104014 a35.89411925539429,35.89411925539429 0 0,0 -0.19093577446545146,0.5876398897301313 l -14.125010469935436 -4.724284879018328" fill="#ffae10" stroke="none" /><path d="M 119.9155931802556 106.66101706037122 l 14.0855323180823 4.711080921665636 a35.85249151267971,35.85249151267971 0 0,0 -0.2007896064486253,0.5835885838711004 l -14.002351880690446 -4.952842208626037" fill="#ffad10" stroke="none" /><path d="M 119.67450827220406 107.3425965602758 l 11.00748594463239 4.108032959000481 a32.749071521337925,32.749071521337925 0 0,0 -0.20164963265287486,0.5264435596999774 l -10.935142032386008 -4.296900085533603" fill="#ff830c" stroke="none" /><path d="M 118.81262510543309 109.33194174019688 l 13.331163922715819 6.612880677660989 a35.881200300758735,35.881200300758735 0 0,0 -0.27922635632453885,0.5509400912396034 l -13.21535889660501 -6.841374980603287" fill="#ffae10" stroke="none" /><line stroke="#e1ed5e" stroke-width="0.3" x1="174.80103733775053" x2="179.2010983576182" y1="140.37084112569926" y2="142.7455964860345" /><path d="M 175.68104954172406 140.8457921977663 a86.0,86.0 0 0,1 -30.038265399797805,32.042727171017184" fill="none" id="id17" stroke="none" /><text fill="#e1ed5e" style="font-size:6.75px; font-family:Arial;" text-anchor="middle"><textPath startOffset="22.206326154141568" xlink:href="#id17">May</textPath></text><path d="M 116.0416608686014 113.55231037782055 l 3.042831386705247 2.570643758011257 a24.98334434596368,24.98334434596368 0 0,0 -0.2803577252904226,0.3261193726077144 l -2.9981311518440457 -2.622640229780499" fill="#ff1402" stroke="none" /><path d="M 115.32070863581623 114.36230785411682 l 5.841480514747405 5.476061419280249 a29.006880995237985,29.006880995237985 0 0,0 -0.34462032253532854,0.361333030404399 l -5.746353640833112 -5.575801566267155" fill="#ff4f07" stroke="none" /><path d="M 113.20401910651253 116.32954008644616 l 1.660693692450254 2.0537961967049343 a23.641208503269613,23.641208503269613 0 0,0 -0.31864128237891953,0.253147905919951 l -1.6250949173539833 -2.0820780166300112" fill="#ff0000" stroke="none" /><path d="M 112.34349029814194 116.9893568818739 l 5.992171256857349 8.24751618230548 a31.194490646859123,31.194490646859123 0 0,0 -0.4371279104306767,0.31187915762642404 l -5.849316018577787 -8.349439601776124" fill="#ff6e0a" stroke="none" /><path d="M 111.1453310114006 117.79835938074945 l 5.212446497755901 8.323933665594188 a30.821276401831895,30.821276401831895 0 0,0 -0.452075915066653,0.2777019505855687 l -5.068391382756939 -8.412424083008135" fill="#ff6809" stroke="none" /><line stroke="#e1ed5e" stroke-width="0.3" x1="143.8653032363475" x2="146.44561519142675" y1="172.8068346515853" y2="177.08958963109032" /><path d="M 144.38136562736335 173.6633856474863 a86.0,86.0 0 0,1 -40.68145358897372,12.25698825130547" fill="none" id="id18" stroke="none" /><text fill="#e1ed5e" style="font-size:6.75px; font-family:Arial;" text-anchor="middle"><textPath startOffset="21.466115282336833" xlink:href="#id18">June</textPath></text><path d="M 110.5260780823613 118.17145234162733 l 4.872469236511473 8.41147498855068 a30.720795643555334,30.720795643555334 0 0,0 -0.4598628567482607,0.2611221317449903 l -4.726957612842013 -8.4941002860903" fill="#ff6709" stroke="none" /><path d="M 108.2653958097858 119.30500536409082 l 2.6101844636157394 6.096456386481777 a27.631730046253047,27.631730046253047 0 0,0 -0.43885574256604426,0.1834417359848611 l -2.5048572615522344 -6.140483165486612" fill="#ff3b05" stroke="none" /><path d="M 105.88484417918355 120.15858648285463 l 2.033796999472672 6.966789851031899 a28.25758162637563,28.25758162637563 0 0,0 -0.46809199583600214,0.13228747366782295 l -1.9135738355320642 -7.000766118038241" fill="#ff4406" stroke="none" /><path d="M 104.83641907484287 120.43548508189849 l 5.642176696917896 23.84008001272038 a45.4986443072296,45.4986443072296 0 0,0 -0.7636835880114093,0.17381189829109772 l -5.2309729595136245 -23.93366864458916" fill="#d7ff1c" stroke="none" /><path d="M 104.48393922423573 120.51570834832081 l 3.06343087422152 14.016348397648603 a35.347216842489004,35.347216842489004 0 0,0 -0.5955308158847576,0.12479927270631586 l -2.821708596907384 -14.067003651081459" fill="#ffa60f" stroke="none" /><path d="M 103.41894727170886 120.7198165907248 l 1.717692071844434 10.409714411936516 a31.55047961903894,31.55047961903894 0 0,0 -0.5366047526605298,0.08380662653145875 l -1.5382514555753872 -10.43773934581508" fill="#ff720a" stroke="none" /><path d="M 102.70371172650421 120.8252237178851 l 1.1920258358098024 9.18152792137156 a30.25858415548315,30.25858415548315 0 0,0 -0.5170940986045196,0.06261289409504735 l -1.0338043141539024 -9.200686344191958" fill="#ff6008" stroke="none" /><path d="M 102.34483914955558 120.86867818915974 l 2.6053471514064626 23.187156050362834 a44.333067511221486,44.333067511221486 0 0,0 -0.759082189024687,0.07868197259222494 l -2.205832365776173 -23.228567391410817" fill="#e5ff1a" stroke="none" /><path d="M 101.62511606390274 120.93702456842531 l 0.8855584721524241 11.409006347341242 a32.44332292829638,32.44332292829638 0 0,0 -0.5571557339056399,0.038424721458071145 l -0.689039977467854 -11.422559413315598" fill="#ff7f0b" stroke="none" /><line stroke="#e1ed5e" stroke-width="0.3" x1="102.19456741930631" x2="102.32365962044197" y1="184.97166512339345" y2="189.96999836594603" /><path d="M 102.22038585953345 185.97133177190398 a86.0,86.0 0 0,1 -42.740103519485714,-10.115201625700543" fill="none" id="id19" stroke="none" /><text fill="#e1ed5e" style="font-size:6.75px; font-family:Arial;" text-anchor="middle"><textPath startOffset="22.20632615414155" xlink:href="#id19">July</textPath></text><path d="M 100.18074693466247 120.99922214144158 l 0.09273529756269984 10.774009072455087 a31.774408166055274,31.774408166055274 0 0,0 -0.5469644644503031,0.0 l 0.09273529756269241 -10.774009072455087" fill="#ff760a" stroke="none" /><path d="M 99.45781275523022 120.99299961872073 l -1.0850662912599711 42.012785174205774 a63.02679486887375,63.02679486887375 0 0,0 -1.0842999183476725,-0.03734548157669686 l 1.8080865612822867 -41.98788289420298" fill="#32ff4b" stroke="none" /><path d="M 98.37488393609728 120.93702456842531 l -1.2186981934250076 15.700979507862618 a36.74820570074506,36.74820570074506 0 0,0 -0.6302416712345716,-0.05437990331276841 l 1.488784182401121 -15.677675352271185" fill="#ffb911" stroke="none" /><path d="M 97.2962882734958 120.8252237178851 l -1.8728666387746473 14.42567503181076 a35.54674291963818,35.54674291963818 0 0,0 -0.6061082055216371,-0.08400107441474831 l 2.1209034354831156 -14.391299391903408" fill="#ffa90f" stroke="none" /><path d="M 96.58105272829116 120.7198165907248 l -7.527697867507595 45.620042302433625 a67.23693864066166,67.23693864066166 0 0,0 -1.1403097548543961,-0.1982574674536027 l 8.31185659383404 -45.483706256459016" fill="#38ff7d" stroke="none" /><path d="M 95.16358092515715 120.4354850818985 l -2.950844858304857 12.468304575704119 a33.81273211966552,33.81273211966552 0 0,0 -0.5652308830698248,-0.13891999905950114 l 3.165029026117892 -12.415663318330587" fill="#ff920d" stroke="none" /><path d="M 94.46302465271185 120.25689768951611 l -3.0482443970283284 11.15193241983386 a32.561028959420355,32.561028959420355 0 0,0 -0.5393793861631142,-0.15243400224476025 l 3.2397549512960566 -11.097809624250578" fill="#ff800b" stroke="none" /><path d="M 93.76903079525671 120.05430185196036 l -6.897239533934212 22.198685150537457 a44.24550570758049,44.24550570758049 0 0,0 -0.7253706281322349,-0.2322407686784906 l 7.278331507157388 -22.07667153519926" fill="#e6ff1a" stroke="none" /><path d="M 93.08242187328487 119.8279376855182 l -4.890645302783012 14.018115665518556 a35.84674975506391,35.84674975506391 0 0,0 -0.5808546550785422,-0.20827381349241134 l 5.131219518491281 -13.931854310986187" fill="#ffad10" stroke="none" /><path d="M 92.40401165467489 119.57807347666478 l -3.611162177885314 9.307491697022275 a30.983481054478343,30.983481054478343 0 0,0 -0.4955570608121744,-0.19719238162932773 l 3.7708403147393463 -9.243952470986882" fill="#ff6b09" stroke="none" /><path d="M 91.7346041902142 119.30500536409082 l -2.364985317033653 5.523758968357732 a27.008749344938366,27.008749344938366 0 0,0 -0.4258113576885863,-0.18666318576837146 l 2.4597173493799827 -5.482231229294908" fill="#ff3204" stroke="none" /><path d="M 91.40352486487194 119.15986991738527 l -25.789425405384158 57.479609752155824 a84.0,84.0 0 0,0 -1.3141280169303222,-0.6032517186637025 l 26.7750214180819 -57.02717096315804" fill="#4dd2ff" stroke="none" /><line stroke="#e1ed5e" stroke-width="0.3" x1="58.666819895761336" x2="56.23545636021788" y1="174.27360380694188" y2="178.64263932499728" /><path d="M 58.180547188652646 175.14741091055294 a86.0,86.0 0 0,1 -31.652253787137756,-30.449443065178592" fill="none" id="id20" stroke="none" /><text fill="#e1ed5e" style="font-size:6.75px; font-family:Arial;" text-anchor="middle"><textPath startOffset="22.20632615414155" xlink:href="#id20">August</textPath></text><path d="M 89.4739219176387 118.17145234162733 l -5.8502727941634305 10.099483628456227 a32.67155779352457,32.67155779352457 0 0,0 -0.484211356614186,-0.2860806044028844 l 6.023252021805999 -9.997284451759592" fill="#ff820c" stroke="none" /><path d="M 88.54995079064634 117.60387380957326 l -3.518837607048744 5.410035542927024 a27.45373556016314,27.45373556016314 0 0,0 -0.39392881611331343,-0.26107453903810574 l 3.6114411219020197 -5.3486629827976" fill="#ff3805" stroke="none" /><path d="M 85.97065885151581 115.62618273729859 l -4.6826270474183715 5.2156109940688316 a28.009250609492128,28.009250609492128 0 0,0 -0.35598483841758216,-0.3251837095754065 l 4.771711435302809 -5.134234517906849" fill="#ff4006" stroke="none" /><path d="M 83.95833913139862 113.55231037782056 l -5.083447318474062 4.294596202573045 a27.65469707671626,27.65469707671626 0 0,0 -0.30407524651172907,-0.3662782228484574 l 5.156618564879327 -4.2064567226108265" fill="#ff3b05" stroke="none" /><path d="M 82.6465618267979 111.8261652097733 l -8.294966379630585 5.652922598733942 a31.038027751828476,31.038027751828476 0 0,0 -0.29707367582348065,-0.4440848378704644 l 8.391043160864797 -5.5093008466576565" fill="#ff6b09" stroke="none" /><path d="M 82.05923443525364 110.91462005526583 l -11.007517490202332 6.696641273398762 a33.884504089863064,33.884504089863064 0 0,0 -0.29885991309162463,-0.5009064047316474 l 11.121158278992189 -6.506172774781003" fill="#ff930d" stroke="none" /><line stroke="#e1ed5e" stroke-width="0.3" x1="26.63291911575756" x2="22.317208475507996" y1="142.92168965132927" y2="145.44649492493687" /><path d="M 25.769776987707644 143.4266507060508 a86.0,86.0 0 0,1 -11.730757126820373,-40.83630448921669" fill="none" id="id21" stroke="none" /><text fill="#e1ed5e" style="font-size:6.75px; font-family:Arial;" text-anchor="middle"><textPath startOffset="21.46611528233685" xlink:href="#id21">September</textPath></text><path d="M 81.69416730710424 110.29060199501025 l -10.285534740067197 5.782001075370882 a32.7993119004762,32.7993119004762 0 0,0 -0.2724273213905076,-0.49453472018837663 l 10.38353847090922 -5.6040958367846825" fill="#ff840c" stroke="none" /><path d="M 79.67330655649465 105.27499134158121 l -12.946578607845895 3.3597737009856954 a34.375424366014265,34.375424366014265 0 0,0 -0.14370349169723873,-0.574024015907703 l 13.002493413838193 -3.1364218456806006" fill="#ff990e" stroke="none" /><path d="M 79.58551787078972 104.9243191809786 l -3.6225019212624985 0.8738088765171541 a24.726400692656476,24.726400692656476 0 0,0 -0.09624390472343186,-0.41461622261153663 l 3.6370063919164854 -0.8113239965570432" fill="#ff1001" stroke="none" /><path d="M 79.07016306316243 101.71520430193888 l -4.432133438696903 0.3632142172804109 a25.446991273439814,25.446991273439814 0 0,0 -0.032018908622995584,-0.4368725690194076 l 4.437728905984233 -0.2868685117642427" fill="#ff1b02" stroke="none" /><path d="M 79.04373962182676 101.35467743843564 l -4.311673339900758 0.2787198903842385 a25.32067260589214,25.32067260589214 0 0,0 -0.02437253292129494,-0.43518794785128345 l 4.3158322237095845 -0.20446022619751747" fill="#ff1902" stroke="none" /><line stroke="#e1ed5e" stroke-width="0.3" x1="15.007084014347285" x2="10.007500721073583" y1="101.09737516637583" y2="101.16192664675087" /><path d="M 14.007167355692545 101.11028546245083 a86.0,86.0 0 0,1 10.666146001902534,-42.60595125391555" fill="none" id="id22" stroke="none" /><text fill="#e1ed5e" style="font-size:6.75px; font-family:Arial;" text-anchor="middle"><textPath startOffset="22.20632615414155" xlink:href="#id22">October</textPath></text><path d="M 79.03285615573316 98.82574320788736 l -4.275216347201899 -0.23943184015621366 a25.281915741985465,25.281915741985465 0 0,0 0.028074253970443996,-0.4342962829638261 l 4.270461502227041 0.31298718737305153" fill="#ff1802" stroke="none" /><path d="M 79.05617556472873 98.46500227214037 l -4.294798694831082 -0.31477088907782574 a25.306318211852627,25.306318211852627 0 0,0 0.035580100373000495,-0.4341673456400877 l 4.288744110638584 0.3886521519256918" fill="#ff1902" stroke="none" /><path d="M 79.08570108090925 98.10471618934814 l -21.359375252350365 -1.935617267307254 a42.44690013443004,42.44690013443004 0 0,0 0.07220596565148737,-0.7271042201952329 l 21.32289216101665 2.3029970182069173" fill="#fcff18" stroke="none" /><path d="M 79.21141760316559 97.0276538004421 l -5.352862213006122 -0.7653508715442107 a26.40730023468295,26.40730023468295 0 0,0 0.06821144799573721,-0.44942821634305724 l 5.338894871571083 0.85737820027936" fill="#ff2904" stroke="none" /><path d="M 79.26566170972629 96.67025291283419 l -5.463615537538234 -0.877407210532767 a26.53361890223063,26.53361890223063 0 0,0 0.07630075488750149,-0.4503313744841322 l 5.44770292113051 0.9713243733327273" fill="#ff2b04" stroke="none" /><path d="M 79.32604984820605 96.31383870115002 l -5.059085981231445 -0.9020340483868124 a26.138873066144136,26.138873066144136 0 0,0 0.08279086760983775,-0.44227212527733867 l 5.042809389711746 0.9889842511267238" fill="#ff2503" stroke="none" /><path d="M 79.62865764111835 94.90015583598534 l -5.496071108284938 -1.3759086501423479 a26.66567932739411,26.66567932739411 0 0,0 0.11530197600464288,-0.4443055481820461 l 5.471572800409987 1.4703106238732577" fill="#ff2d04" stroke="none" /><path d="M 79.71946130924805 94.55025226153421 l -10.33457695136976 -2.7770878391120175 a31.70120075645378,31.70120075645378 0 0,0 0.14614741057887704,-0.5257699948342723 l 10.285242770224523 2.9545691373652323" fill="#ff750a" stroke="none" /><path d="M 80.95270993114464 91.15688171328213 l -7.439418678035921 -3.4539117699404804 a29.202100754175305,29.202100754175305 0 0,0 0.21559744974011855,-0.4541032133573943 l 7.378863034454051 3.581457398938407" fill="#ff5107" stroke="none" /><line stroke="#e1ed5e" stroke-width="0.3" x1="26.266209847984243" x2="21.928928074336255" y1="57.711370442889674" y2="55.22380399835377" /><path d="M 25.398753493254645 57.213857153982495 a86.0,86.0 0 0,1 29.58750427330803,-30.492523968695096" fill="none" id="id23" stroke="none" /><text fill="#e1ed5e" style="font-size:6.75px; font-family:Arial;" text-anchor="middle"><textPath startOffset="21.46611528233685" xlink:href="#id23">November</textPath></text><path d="M 82.7489923806493 88.02491185347247 l -8.144594975519285 -5.653712809227749 a30.9145799630887,30.9145799630887 0 0,0 0.30721346201716665,-0.43453165516560627 l 8.046068893698239 5.793070964725142" fill="#ff6a09" stroke="none" /><path d="M 83.17141714833178 87.43820079747576 l -9.115019060581394 -6.803962055239492 a32.37442183690674,32.37442183690674 0 0,0 0.33719357033645264,-0.4437072131767381 l 8.996549550020832 6.959854044297257" fill="#ff7e0b" stroke="none" /><path d="M 83.84228863543731 86.58626213691792 l -7.09055847436664 -5.886408695640385 a30.215520973364626,30.215520973364626 0 0,0 0.3356647786211031,-0.3973212237661136 l 6.988183082258413 6.007588869035614" fill="#ff6008" stroke="none" /><line stroke="#e1ed5e" stroke-width="0.3" x1="56.762969772571076" x2="54.21961505331055" y1="26.818313649435495" y2="22.513508569990535" /><path d="M 56.25429882871897 25.957352633546506 a86.0,86.0 0 0,1 42.265352541879196,-11.944610805530505" fill="none" id="id24" stroke="none" /><text fill="#e1ed5e" style="font-size:6.75px; font-family:Arial;" text-anchor="middle"><textPath startOffset="22.20632615414155" xlink:href="#id24">December</textPath></text><path d="M 97.83486435360386 79.11191278185805 l -0.5196147955863791 -5.012969597591404 a26.039827747271527,26.039827747271527 0 0,0 0.4462418905305466,-0.0423760444848332 l 0.4332477779655962 5.021171186591418" fill="#ff2403" stroke="none" /><path d="M 99.63851952072746 79.00311137660856 l -0.1356608095466717 -7.879968828034474 a28.881136503451888,28.881136503451888 0 0,0 0.4971412888192055,-0.004279052025973138 l 1.9303217185191435e-15 7.881136503451888" fill="#ff4d07" stroke="none" /></svg>