<?xml version="1.0" encoding="utf-8" ?>
<svg baseProfile="full" height="200mm" version="1.1" viewBox="0,0,200,200" width="200mm" xmlns="http://www.w3.org/2000/svg" xmlns:ev="http://www.w3.org/2001/xml-events" xmlns:xlink="http://www.w3.org/1999/xlink"><defs /><rect fill="#1a1a1a" height="200" width="200" x="0" y="0" /><text alignment-baseline="middle" fill="#e1ed5e" style="dominant-baseline: central; font-size:9.0px; font-family:Arial;" text-anchor="middle" x="100.0" y="100.0">2016</text><line stroke="#e1ed5e" stroke-width="0.3" x1="100.0" x2="100.0" y1="15.0" y2="10.0" /><path d="M 100.0 14.0 a86.0,86.0 0 0,1 42.35913384403234,11.155469271406648" fill="none" id="id37" stroke="none" /><text fill="#e1ed5e" style="font-size:6.75px; font-family:Arial;" text-anchor="middle"><textPath startOffset="22.145653131862478" xlink:href="#id37">January</textPath></text><line stroke="#e1ed5e" stroke-width="0.3" x1="143.13028292997686" x2="145.6673583964461" y1="26.7553504044142" y2="22.446841604673864" /><path d="M 143.63769802327073 25.89364864446614 a86.0,86.0 0 0,1 29.32050498858742,28.57503671076993" fill="none" id="id38" stroke="none" /><text fill="#e1ed5e" style="font-size:6.75px; font-family:Arial;" text-anchor="middle"><textPath startOffset="20.669276256404974" xlink:href="#id38">February</textPath></text><path d="M 117.01052211995028 87.68569379921539 l 8.966372882570269 -6.490962500021413 a32.069256381798,32.069256381798 0 0,0 0.31898968854901455,0.448698945117325 l -9.076477669649245 6.336086328194584" fill="#ff6a09" stroke="none" /><path d="M 117.81537515405839 88.88188828441811 l 12.240549657935086 -7.639008293689958 a35.42863485016648,35.42863485016648 0 0,0 0.31756209782919564,0.5187138210858234 l -12.369879720219684 7.427757356479581" fill="#ff990e" stroke="none" /><line stroke="#e1ed5e" stroke-width="0.3" x1="172.87174338648825" x2="177.1583165268699" y1="56.24261187166439" y2="53.66864786411523" /><path d="M 173.72905801456457 55.72781907015455 a86.0,86.0 0 0,1 12.242430191666344,42.057860355516425" fill="none" id="id39" stroke="none" /><text fill="#e1ed5e" style="font-size:6.75px; font-family:Arial;" text-anchor="middle"><textPath startOffset="22.145653131862474" xlink:href="#id39">March</textPath></text><path d="M 118.00360718960297 89.18935116829356 l 12.4269705944534 -7.462038786102875 a35.49522752497225,35.49522752497225 0 0,0 0.3091909656782344,0.5250738553231917 l -12.553235270261402 7.247613762486127" fill="#ff9a0e" stroke="none" /><path d="M 118.36410011445183 89.81374322990088 l 13.578427853771156 -7.5317250391121355 a36.52741398446171,36.52741398446171 0 0,0 0.2994459135214619,0.5509467535833538 l -13.70571911690796 7.297523452054179" fill="#ffa80f" stroke="none" /><path d="M 118.53625476483649 90.13048839642627 l 19.449303199952375 -10.355658467615303 a43.03440621531632,43.03440621531632 0 0,0 0.3415946796451297,0.6550528391663331 l -19.624205948572452 10.020259385344472" fill="#fffe18" stroke="none" /><path d="M 118.8641267826498 90.77261029715802 l 11.46862339232479 -5.609878401233117 a33.76714761376249,33.76714761376249 0 0,0 0.2502318365824241,0.522888297377035 l -11.563234486867128 5.412177601790979" fill="#ff820c" stroke="none" /><path d="M 119.16976305983485 91.42560881287824 l 13.822370774553505 -6.182570633999376 a36.14206437291898,36.14206437291898 0 0,0 0.24846140616243215,0.5685283209037176 l -13.926466062732906 5.9443802433198085" fill="#ffa30f" stroke="none" /><path d="M 119.31412917781788 91.75594674310238 l 11.695250822688811 -4.992007133604318 a33.71609322974473,33.71609322974473 0 0,0 0.22264527400781176,0.5342676064526702 l -11.779221941233107 4.79050701771037" fill="#ff810b" stroke="none" /><path d="M 119.58574465831526 92.42381321644754 l 25.024952622037237 -9.680189271415392 a47.831964483906766,47.831964483906766 0 0,0 0.2896551531062089,0.7683447067165826 l -25.18743845895789 9.249176284504653" fill="#c4ff1e" stroke="none" /><path d="M 119.94978838288452 93.4421083053983 l 10.333908141253168 -3.39696086352683 a31.877913429522753,31.877913429522753 0 0,0 0.16642590948922464,0.5213267910953957 l -10.39069876651965 3.2190650387400472" fill="#ff6709" stroke="none" /><path d="M 120.16314734710363 94.1308016681162 l 20.9922223767557 -6.110529989946565 a42.86348501664817,42.86348501664817 0 0,0 0.19958362856506745,0.7082518883180399 l -21.09402449739535 5.749270177725513" fill="#fffc17" stroke="none" /><path d="M 120.35273937422433 94.82641323984039 l 21.66892836520265 -5.50815685474929 a43.358046614872364,43.358046614872364 0 0,0 0.1771743440687688,0.7229317846937269 l -21.76029023578771 5.1353692454474675" fill="#fbff18" stroke="none" /><path d="M 120.98066250479742 99.09900007780936 l 16.46872784320339 -0.7072380341617999 a37.483906770255274,37.483906770255274 0 0,0 0.02208928946966059,0.6431055613802641 l -16.4784418196699 0.4244262082174158" fill="#ffb510" stroke="none" /><line stroke="#e1ed5e" stroke-width="0.3" x1="184.99686870605535" x2="189.99668451229388" y1="99.2704041080226" y2="99.22748670261217" /><path d="M 185.99683186730306 99.26182062694052 a86.0,86.0 0 0,1 -10.086455211305974,41.156179273409016" fill="none" id="id40" stroke="none" /><text fill="#e1ed5e" style="font-size:6.75px; font-family:Arial;" text-anchor="middle"><textPath startOffset="21.40746469413373" xlink:href="#id40">April</textPath></text><path d="M 120.99922638620191 99.81974689727618 l 17.917874864683444 -0.15380340585778324 a38.91853496115428,38.91853496115428 0 0,0 0.0,0.668113017163218 l -17.917874864683444 -0.15380340585778107" fill="#ffc912" stroke="none" /><line stroke="#e1ed5e" stroke-width="0.3" x1="174.33088141563837" x2="178.70328620479359" y1="141.23008692659167" y2="143.65538615756765" /><path d="M 175.20536237346943 141.71514677278685 a86.0,86.0 0 0,1 -30.301960400862466,31.631185727798858" fill="none" id="id41" stroke="none" /><text fill="#e1ed5e" style="font-size:6.75px; font-family:Arial;" text-anchor="middle"><textPath startOffset="22.145653131862474" xlink:href="#id41">May</textPath></text><path d="M 118.18653347947321 110.5 l 10.08664882054817 5.823529411764704 a32.64705882352941,32.64705882352941 0 0,0 -0.28438120694112107,0.48294146105624663 l -9.985193903477283 -5.9958220411145" fill="#ff720a" stroke="none" /><path d="M 117.62189284568427 111.42229804090321 l 13.544298043243868 8.779250354064123 a37.14073251942286,37.14073251942286 0 0,0 -0.35137885105674044,0.5320323654794846 l -13.3915947532664 -9.01046259788267" fill="#ffb110" stroke="none" /><path d="M 116.57777611688842 112.89097897827486 l 13.391541740974013 10.413343855797484 a37.9638179800222,37.9638179800222 0 0,0 -0.4044657382449727,0.5110292474193069 l -13.210809572087477 -10.641693047131474" fill="#ffbc11" stroke="none" /><path d="M 115.89218393027572 113.72728997021213 l 15.416115548494615 13.316073440688513 a41.37092119866815,41.37092119866815 0 0,0 -0.4688486437678206,0.5334636912493254 l -15.185255840768209 -13.57874940974913" fill="#ffe915" stroke="none" /><path d="M 114.91283532996324 114.78537596483092 l 13.879238149491082 13.760612895210958 a40.54450610432852,40.54450610432852 0 0,0 -0.4942724360499078,0.4900479106992679 l -13.64097379331121 -13.996840816138887" fill="#ffde14" stroke="none" /><path d="M 114.39649973595853 115.28858382429668 l 15.001546857676944 15.931122900301155 a42.882574916759154,42.882574916759154 0 0,0 -0.5402596501129953,0.5000562665363365 l -14.725857436249981 -16.186296912969873" fill="#fffc17" stroke="none" /><path d="M 111.5731344415666 117.5232005979908 l 9.87236505156501 14.948018970023284 a38.91387347391787,38.91387347391787 0 0,0 -0.5605717062091898,0.3633558073295844 l -9.61430771309881 -15.115288619056765" fill="#ffc912" stroke="none" /><line stroke="#e1ed5e" stroke-width="0.3" x1="143.1302829299769" x2="145.66735839644613" y1="173.24464959558577" y2="177.55315839532614" /><path d="M 143.63769802327073 174.10635135553383 a86.0,86.0 0 0,1 -40.68552437913181,11.842963189579606" fill="none" id="id42" stroke="none" /><text fill="#e1ed5e" style="font-size:6.75px; font-family:Arial;" text-anchor="middle"><textPath startOffset="21.407464694133747" xlink:href="#id42">June</textPath></text><path d="M 106.72888874123015 119.89276391827305 l 5.437664744524982 16.075489607482623 a37.970255271920095,37.970255271920095 0 0,0 -0.6192356703020896,0.203555064411566 l -5.160906336575159 -16.16646559329621" fill="#ffbc11" stroke="none" /><path d="M 106.38641147887787 120.00534299687104 l 4.78037463627988 14.97445546197796 a36.71897891231964,36.71897891231964 0 0,0 -0.6021202066593602,0.1865383791724824 l -4.522613796748895 -15.054310428957088" fill="#ffab0f" stroke="none" /><path d="M 105.69591212413111 120.21278271476187 l 4.202951572975471 14.914792407928719 a36.49567147613762,36.49567147613762 0 0,0 -0.6044701583227522,0.16475102961026555 l -3.946300013718024 -14.984743931683127" fill="#ffa80f" stroke="none" /><path d="M 104.29559338865022 120.5559693870025 l 3.659098191545427 17.510109455001025 a38.888346281908994,38.888346281908994 0 0,0 -0.6546270039306622,0.13094373468463583 l -3.357974702083806 -17.570342586348524" fill="#ffc812" stroke="none" /><path d="M 103.58742460773223 120.69131181640829 l 2.5950952957535343 14.96782004616794 a36.19112097669257,36.19112097669257 0 0,0 -0.6130474248160673,0.10087672046157554 l -2.337770367884395 -15.010162765125186" fill="#ffa40f" stroke="none" /><line stroke="#e1ed5e" stroke-width="0.3" x1="101.45913802915013" x2="101.54496967792366" y1="184.9874750549273" y2="189.98673829345242" /><path d="M 101.47630435890484 185.9873277026323 a86.0,86.0 0 0,1 -42.54439059252881,-10.42667462771756" fill="none" id="id43" stroke="none" /><text fill="#e1ed5e" style="font-size:6.75px; font-family:Arial;" text-anchor="middle"><textPath startOffset="22.145653131862474" xlink:href="#id43">July</textPath></text><path d="M 98.91894614982273 120.97215588758144 l -1.0761402287452475 20.87683294448478 a41.904550499445065,41.904550499445065 0 0,0 -0.7180756746941154,-0.04319764945039578 l 1.4343602555718091 -20.855283317209693" fill="#fff016" stroke="none" /><path d="M 97.84075906011543 120.88869738790638 l -1.160907258245216 11.230724633354146 a32.29056603773584,32.29056603773584 0 0,0 -0.5508833584909182,-0.061727629351635276 l 1.3535265183369336 -11.20914124349554" fill="#ff6d0a" stroke="none" /><path d="M 96.05791012581884 120.62667999033965 l -3.1197117149206703 16.323649957155958 a37.619089900110986,37.619089900110986 0 0,0 -0.6332609757531463,-0.12666993065861437 l 3.3994691762047746 -16.267690629834483" fill="#ffb711" stroke="none" /><path d="M 93.95794788825049 120.11202640906438 l -4.559145204263522 15.17591160337689 a36.84594894561599,36.84594894561599 0 0,0 -0.604202269531258,-0.18718340757239602 l 4.8189881066664135 -15.095411607997844" fill="#ffad10" stroke="none" /><path d="M 92.93061703081489 119.77432235084164 l -7.2521609486008565 20.285584889504072 a42.542952275249725,42.542952275249725 0 0,0 -0.685571265266933,-0.25175126475751647 l 7.5993213655219085 -20.158102775737838" fill="#fff817" stroke="none" /><path d="M 90.93487009805054 118.94263497670748 l -7.778256115329504 16.25356370418297 a39.0188679245283,39.0188679245283 0 0,0 -0.6017076410835943,-0.2943253592083977 l 8.056124005675168 -16.11764459487735" fill="#ffca12" stroke="none" /><path d="M 90.28995756902619 118.62028667847754 l -9.179302730000654 17.602523321208817 a40.852164261931186,40.852164261931186 0 0,0 -0.6190293127367151,-0.32959824206760063 l 9.48012085852393 -17.442354611418644" fill="#ffe215" stroke="none" /><line stroke="#e1ed5e" stroke-width="0.3" x1="58.13341422392154" x2="55.67067388415222" y1="173.97424548756322" y2="178.32567169271397" /><path d="M 57.64086615596768 174.84453072859336 a86.0,86.0 0 0,1 -31.369924170532247,-30.572349798747897" fill="none" id="id44" stroke="none" /><text fill="#e1ed5e" style="font-size:6.75px; font-family:Arial;" text-anchor="middle"><textPath startOffset="22.145653131862474" xlink:href="#id44">August</textPath></text><path d="M 89.65649057296885 118.27599006163327 l -6.785573971458531 11.989459026427204 a34.7764705882353,34.7764705882353 0 0,0 -0.517022669470397,-0.29850317739587484 l 6.990389108789328 -11.871208951755156" fill="#ff900d" stroke="none" /><path d="M 89.03521579738668 117.91015095944536 l -7.068666811830069 11.54613600619008 a34.53806881243063,34.53806881243063 0 0,0 -0.5029990650081229,-0.31390861821506505 l 7.265830005627905 -11.423091591133467" fill="#ff8d0d" stroke="none" /><path d="M 87.54013794807813 116.9041958592261 l -7.969675730520549 10.812395748993083 a34.43218645948946,34.43218645948946 0 0,0 -0.47278181194576036,-0.35478428569195924 l 8.154110531377075 -10.673992436037109" fill="#ff8b0c" stroke="none" /><path d="M 87.2517909369889 116.68781488649013 l -6.621172247979639 8.667327015089887 a31.906992230854605,31.906992230854605 0 0,0 -0.4324006040715358,-0.33623732507769744 l 6.768982796686403 -8.552388638391397" fill="#ff6809" stroke="none" /><path d="M 86.13680546590413 115.77377054828092 l -15.372971959018326 17.491620111823423 a44.287014428412874,44.287014428412874 0 0,0 -0.5667366492615485,-0.5067794064412743 l 15.670973635103245 -17.225145175498767" fill="#f0ff19" stroke="none" /><path d="M 84.3458050057657 113.99807769240083 l -26.77238821924981 23.940034632391274 a56.9149833518313,56.9149833518313 0 0,0 -0.645006492034131,-0.7338989857261986 l 27.179405775242532 -23.476923368853775" fill="#5dff2a" stroke="none" /><path d="M 83.4222238831116 112.89097897827486 l -14.143985804669576 10.99844891084439 a38.91698113207548,38.91698113207548 0 0,0 -0.4055668746711869,-0.5309000578161555 l 14.330704656695058 -10.754027939787365" fill="#ffc912" stroke="none" /><path d="M 82.78059297857968 112.02048342749411 l -18.650944849478787 13.019808010309408 a43.74583795782464,43.74583795782464 0 0,0 -0.42456432130563737,-0.6194520330433877 l 18.871698907599747 -12.697721242195968" fill="#f7ff19" stroke="none" /><path d="M 82.18462484594161 111.11811171558189 l -19.256913093959202 12.017738005765072 a43.6992230854606,43.6992230854606 0 0,0 -0.39169493871874383,-0.6398042453796214 l 19.46037599713335 -11.685396644260893" fill="#f7ff18" stroke="none" /><line stroke="#e1ed5e" stroke-width="0.3" x1="26.387840678322732" x2="22.057713659400548" y1="142.50000000000003" y2="145.00000000000006" /><path d="M 25.521815274538298 143.00000000000003 a86.0,86.0 0 0,1 -11.493303480769221,-40.785679425670985" fill="none" id="id45" stroke="none" /><text fill="#e1ed5e" style="font-size:6.75px; font-family:Arial;" text-anchor="middle"><textPath startOffset="21.40746469413373" xlink:href="#id45">September</textPath></text><path d="M 81.63589988554817 110.18625677009913 l -17.703726259059774 9.819958524426308 a41.24483906770255,41.24483906770255 0 0,0 -0.3381186118986822,-0.6221001628006335 l 17.869690220573784 -9.514603528151088" fill="#ffe715" stroke="none" /><path d="M 81.1358732173502 109.22738970284198 l -19.45753771553038 9.517656726314916 a42.660599334073254,42.660599334073254 0 0,0 -0.31613686305920785,-0.6606044551357306 l 19.6180538365495 -9.182239769114082" fill="#fffa17" stroke="none" /><path d="M 80.16572619554312 106.89939002012753 l -17.670229893357003 6.146623213005744 a39.70876803551609,39.70876803551609 0 0,0 -0.21842579045253796,-0.6457370377534608 l 17.773141105381907 -5.842384500778121" fill="#ffd313" stroke="none" /><path d="M 79.56144815229197 104.8234425847677 l -27.327448869724485 6.449203524469494 a49.07813540510544,49.07813540510544 0 0,0 -0.18647153049188345,-0.8216279696536453 l 27.434131261774034 -5.979141220876823" fill="#b5ff1f" stroke="none" /><path d="M 79.13060592940153 102.33845913500099 l -33.07293246053111 3.705891065738145 a54.27991120976693,54.27991120976693 0 0,0 -0.09581078308826929,-0.9268824138431637 l 33.13167563610105 -3.13760412961205" fill="#79ff26" stroke="none" /><path d="M 79.01933749520258 100.90099992219065 l -14.77794436519931 0.6346285166227588 a35.791564927857934,35.791564927857934 0 0,0 -0.021091991374041646,-0.6140703154739892 l 14.7866610435702 -0.3808519365846497" fill="#ff9e0e" stroke="none" /><line stroke="#e1ed5e" stroke-width="0.3" x1="15.003131293944662" x2="10.003315487706104" y1="100.72959589197737" y2="100.7725132973878" /><path d="M 14.003168132696942 100.73817937305945 a86.0,86.0 0 0,1 10.791469493833604,-42.45332614584628" fill="none" id="id46" stroke="none" /><text fill="#e1ed5e" style="font-size:6.75px; font-family:Arial;" text-anchor="middle"><textPath startOffset="22.145653131862435" xlink:href="#id46">October</textPath></text><path d="M 79.00696218219943 99.45929381324524 l -14.328655335035345 -0.3690553341908826 a35.33340732519423,35.33340732519423 0 0,0 0.020821998815097865,-0.6062097767081457 l 14.320208649223396 0.6149713754631668" fill="#ff980e" stroke="none" /><path d="M 79.06263194458094 98.37931529534042 l -15.27638885252742 -1.182489111821073 a36.32208657047725,36.32208657047725 0 0,0 0.05345638628344797,-0.6212442386435179 l 15.253838843546228 1.4445543978402715" fill="#ffa60f" stroke="none" /><path d="M 79.22317932658666 96.9465228501225 l -14.719797110464869 -2.163303271185864 a35.87791342952275,35.87791342952275 0 0,0 0.09478348106011118,-0.608577941487445 l 14.68049213726649 2.415669394604759" fill="#ffa00e" stroke="none" /><path d="M 79.73907114497095 94.47779374421319 l -12.499647086557484 -3.4068343969028834 a33.95560488346282,33.95560488346282 0 0,0 0.15810620228688954,-0.5610631349353213 l 12.439322392196011 3.620905455741218" fill="#ff850c" stroke="none" /><path d="M 79.83685265289637 94.1308016681162 l -10.50708737450306 -3.058460002785681 a31.943174250832406,31.943174250832406 0 0,0 0.15777445638388748,-0.5251798519410235 l 10.453036598115544 3.2383774583174283" fill="#ff6809" stroke="none" /><path d="M 80.05021161711548 93.44210830539832 l -3.7204599803311846 -1.2229890932599496 a24.916315205327415,24.916315205327415 0 0,0 0.13705703080540327,-0.4051847581377761 l 3.6989175279534163 1.2866755258718874" fill="#ff0000" stroke="none" /><line stroke="#e1ed5e" stroke-width="0.3" x1="26.387840678322718" x2="22.05771365940052" y1="57.49999999999999" y2="54.99999999999999" /><path d="M 25.521815274538284 56.99999999999999 a86.0,86.0 0 0,1 29.574782752854787,-30.34633250058573" fill="none" id="id47" stroke="none" /><text fill="#e1ed5e" style="font-size:6.75px; font-family:Arial;" text-anchor="middle"><textPath startOffset="21.40746469413373" xlink:href="#id47">November</textPath></text><path d="M 82.37810715431573 88.57770195909679 l -18.12872832407449 -11.750822674583226 a42.60399556048834,42.60399556048834 0 0,0 0.40306536772375195,-0.6102923394165812 l 17.924338517430012 12.060294892338868" fill="#fff917" stroke="none" /><path d="M 86.13680546590413 84.22622945171909 l -13.458311002594296 -15.313087412876863 a41.38668146503885,41.38668146503885 0 0,0 0.5376731413419605,-0.46442925357382897 l 13.193458381489487 15.541860798915401" fill="#ffe915" stroke="none" /><path d="M 86.96720088162412 83.53348406188908 l -22.7958610444823 -28.801825747676173 a57.731409544950054,57.731409544950054 0 0,0 0.7823707161277477,-0.6083762009879085 l 22.29808038371931 29.188903000284885" fill="#54ff2b" stroke="none" /><path d="M 88.72937992617638 82.28071324371311 l -9.934419294287595 -15.618557193805904 a39.51032186459489,39.51032186459489 0 0,0 0.575413033774181,-0.35910029043906383 l 9.664842131723717 15.786793281086503" fill="#ffd113" stroke="none" /><line stroke="#e1ed5e" stroke-width="0.3" x1="56.869717070023135" x2="54.33264160355391" y1="26.7553504044142" y2="22.446841604673864" /><path d="M 56.362301976729285 25.89364864446614 a86.0,86.0 0 0,1 42.16139366436587,-11.88097634709845" fill="none" id="id48" stroke="none" /><text fill="#e1ed5e" style="font-size:6.75px; font-family:Arial;" text-anchor="middle"><textPath startOffset="22.145653131862474" xlink:href="#id48">December</textPath></text><path d="M 89.34428304082924 81.90426304109057 l -17.676179282146425 -30.018016802985592 a55.83573806881243,55.83573806881243 0 0,0 0.8301113327455744,-0.47926500141801376 l 17.15827548154045 30.317028701679778" fill="#68ff28" stroke="none" /><path d="M 93.61358852112211 79.99465700312896 l -4.449054858907311 -13.936600978296937 a35.62952275249722,35.62952275249722 0 0,0 0.5842552336255379,-0.18100376485987085 l 4.209158992410157 14.01092133096345" fill="#ff9c0e" stroke="none" /><path d="M 94.6519064749342 79.69241777938228 l -11.922904765832987 -45.27321141747778 a67.81687014428414,67.81687014428414 0 0,0 1.1283264504016555,-0.28681617140584137 l 11.143973022205953 45.47121282071888" fill="#38ff80" stroke="none" /><path d="M 97.48249496171623 79.15144685158666 l -1.4253487909264202 -11.803932691596255 a32.889678135405106,32.889678135405106 0 0,0 0.5611043278009912,-0.0628729102817308 l 1.2225085615246296 11.826661362384957" fill="#ff760a" stroke="none" /><path d="M 99.27912038922189 79.0123766808444 l -2.1626388323343404 -62.96286995746683 a84.0,84.0 0 0,0 1.4415467437170244,-0.03712913059981959 l 1.081478774546572 62.990716805416696" fill="#4dd2ff" stroke="none" /></svg>