<?xml version="1.0" encoding="utf-8" ?>
<svg baseProfile="full" height="200mm" version="1.1" viewBox="0,0,200,200" width="200mm" xmlns="http://www.w3.org/2000/svg" xmlns:ev="http://www.w3.org/2001/xml-events" xmlns:xlink="http://www.w3.org/1999/xlink"><defs /><rect fill="#1a1a1a" height="200" width="200" x="0" y="0" /><text alignment-baseline="middle" fill="#e1ed5e" style="dominant-baseline: central; font-size:9.0px; font-family:Arial;" text-anchor="middle" x="100.0" y="100.0">2015</text><line stroke="#e1ed5e" stroke-width="0.3" x1="100.0" x2="100.0" y1="15.0" y2="10.0" /><path d="M 100.0 14.0 a86.0,86.0 0 0,1 42.46469731375804,11.215312516191453" fill="none" id="id25" stroke="none" /><text fill="#e1ed5e" style="font-size:6.75px; font-family:Arial;" text-anchor="middle"><textPath startOffset="22.20632615414155" xlink:href="#id25">January</textPath></text><path d="M 100.36148047927253 79.00311137660856 l 0.6151194614067625 -35.7297158818387 a56.73501040924317,56.73501040924317 0 0,0 0.9763105530401146,0.02521522118832647 l -1.2300566496417449 35.71383386850801" fill="#7fff26" stroke="none" /><path d="M 102.16513564639614 79.11191278185805 l 4.230924386214064 -40.81772785908576 a62.03641832251258,62.03641832251258 0 0,0 1.0612165264974225,0.11924004169938902 l -4.932907616221212 40.73885186391576" fill="#40ff2d" stroke="none" /><path d="M 106.0581310904928 79.89281104454417 l 11.463593886213928 -38.04814470595451 a60.73758045419091,60.73758045419091 0 0,0 0.998452438045061,0.31022403271802723 l -12.116831696969708 37.845180538353965" fill="#4fff2b" stroke="none" /><path d="M 107.08798089147638 80.2323363322302 l 12.116630226745198 -33.792059371528914 a56.89869084828318,56.89869084828318 0 0,0 0.9190972179114195,0.33851126193727044 l -12.696509770429195 33.57848484178532" fill="#7dff26" stroke="none" /><path d="M 107.4271985657038 80.35727306442388 l 3.425879578809208 -9.06043058973192 a30.686488185088127,30.686488185088127 0 0,0 0.4924696726387387,0.19107058200841928 l -3.581332416447614 9.000117303832955" fill="#ff0000" stroke="none" /><path d="M 108.76106565485865 80.91482961587045 l 21.39754610547086 -46.61257309477015 a72.28924789710842,72.28924789710842 0 0,0 1.1264103333665998,0.5288647550292088 l -22.196734650137056 46.23734335710093" fill="#3cffa5" stroke="none" /><path d="M 109.73455568895987 81.39251694778311 l 10.60025253901983 -20.26225189637865 a43.86753606760677,43.86753606760677 0 0,0 0.6660657700835424,0.355789267060239 l -10.947463355631685 20.076783902816654" fill="#ffd113" stroke="none" /><line stroke="#e1ed5e" stroke-width="0.3" x1="143.23703022742887" x2="145.7803849466894" y1="26.81831364943548" y2="22.513508569990506" /><path d="M 143.74570117128098 25.957352633546492 a86.0,86.0 0 0,1 28.547481713284135,27.462654790039103" fill="none" id="id26" stroke="none" /><text fill="#e1ed5e" style="font-size:6.75px; font-family:Arial;" text-anchor="middle"><textPath startOffset="19.985693538727396" xlink:href="#id26">February</textPath></text><path d="M 110.68208982089419 81.91981866633111 l 27.163631247288365 -45.97633860663194 a74.40118513863092,74.40118513863092 0 0,0 1.0970204398706997,0.6609425403766159 l -27.9510137533767 45.501949456796716" fill="#3fffbf" stroke="none" /><path d="M 113.06298171725822 83.55741782278167 l 10.900783982522965 -13.720989610812914 a38.5240590998109,38.5240590998109 0 0,0 0.5156658136408349,0.41696589247730187 l -11.13535319472829 13.531317621071482" fill="#ff800b" stroke="none" /><path d="M 113.6212207817346 84.01681056812373 l 15.506485729696715 -18.195366099107225 a44.90653565797078,44.90653565797078 0 0,0 0.5840120652134301,0.5064495080026322 l -15.81739159355691 17.925751597684922" fill="#ffe015" stroke="none" /><path d="M 114.68862486808459 84.99185889309783 l 9.967348866334461 -10.184164929741032 a35.25009679754443,35.25009679754443 0 0,0 0.4299910876270188,0.4281445692460307 l -10.141175754128803 10.011084509844881" fill="#ff4c07" stroke="none" /><path d="M 115.68641384162765 86.03803664274999 l 31.753177468671566 -28.262463605119805 a63.50918875240591,63.50918875240591 0 0,0 0.7197954124115626,0.8228505856047794 l -32.23496474466098 27.711697463312078" fill="#2fff30" stroke="none" /><path d="M 116.82858285166822 87.43820079747576 l 21.33973129929957 -15.929173714770034 a47.62935799379373,47.62935799379373 0 0,0 0.4847702164403189,0.6612260304288682 l -21.61076412825351 15.559485240669671" fill="#f7ff18" stroke="none" /><path d="M 117.2510076193507 88.02491185347247 l 29.092652498913857 -20.195172698202114 a56.41507348196198,56.41507348196198 0 0,0 0.546891844210861,0.8024962984703313 l -29.435968808793454 19.69139837646138" fill="#83ff25" stroke="none" /><line stroke="#e1ed5e" stroke-width="0.3" x1="172.23445277983987" x2="176.4835382374775" y1="55.19839476539836" y2="52.563006222186495" /><path d="M 173.08426987136738 54.67131705675599 a86.0,86.0 0 0,1 12.851231095245387,41.99856678651699" fill="none" id="id27" stroke="none" /><text fill="#e1ed5e" style="font-size:6.75px; font-family:Arial;" text-anchor="middle"><textPath startOffset="22.20632615414155" xlink:href="#id27">March</textPath></text><path d="M 118.3937258080291 89.86733742301442 l 14.143414456349142 -7.791267950188158 a37.14744650883523,37.14744650883523 0 0,0 0.3037102714420154,0.5627290073857502 l -14.275432827009622 7.546657959469949" fill="#ff6a09" stroke="none" /><path d="M 119.61058180528143 92.48833698450437 l 28.767659494501736 -11.019202082470771 a51.80586060031312,51.80586060031312 0 0,0 0.3118106223144769,0.835497445314748 l -28.95307470531784 10.52238150012669" fill="#beff1f" stroke="none" /><path d="M 119.7369772167798 92.82701384747503 l 32.18761891298675 -11.697908053990968 a55.247392077752274,55.247392077752274 0 0,0 0.31713823372693195,0.8965924930398774 l -32.38421022752349 11.142117934524476" fill="#92ff23" stroke="none" /><path d="M 120.28053869075195 94.5502522615342 l 27.578400753532037 -7.410815335275105 a49.55675702974631,49.55675702974631 0 0,0 0.2142826342339585,0.825718401091208 l -27.7018797196363 6.935000508635047" fill="#ddff1b" stroke="none" /><path d="M 120.53481517161879 95.60439243477599 l 30.592215851693425 -6.548458036307182 a52.285235709035,52.285235709035 0 0,0 0.18080907764002227,0.8816892756096842 l -30.700404225248445 6.020893104534086" fill="#b8ff1f" stroke="none" /><path d="M 120.67395015179393 96.31383870115 l 19.971504298549604 -3.5609153395748976 a41.28647583989405,41.28647583989405 0 0,0 0.11872444858864231,0.7007184161758593 l -20.029840608658468 3.2166111350832005" fill="#ffaa0f" stroke="none" /><path d="M 120.96714384426684 98.82574320788733 l 28.825866598894667 -1.614381524431677 a49.871037613561754,49.871037613561754 0 0,0 0.04062445272474383,0.8575179896877985 l -28.84938465985291 1.1179524281208788" fill="#d8ff1c" stroke="none" /><line stroke="#e1ed5e" stroke-width="0.3" x1="184.98032266829074" x2="189.97916517819016" y1="98.17113171792111" y2="98.06355123074" /><path d="M 185.9800911702706 98.14961562048488 a86.0,86.0 0 0,1 -9.607161424134198,41.387399972396054" fill="none" id="id28" stroke="none" /><text fill="#e1ed5e" style="font-size:6.75px; font-family:Arial;" text-anchor="middle"><textPath startOffset="21.466115282336823" xlink:href="#id28">April</textPath></text><path d="M 120.99513854157772 99.54816195383933 l 44.41817169484201 -0.9559270053341737 a65.42845679462647,65.42845679462647 0 0,0 0.014540673436160825,1.1261911820150012 l -44.42804537539589 0.1911995652587098" fill="#32ff4b" stroke="none" /><path d="M 120.92983693683757 101.71520430193887 l 29.13220206184276 2.3873897561752857 a50.22986190216995,50.22986190216995 0 0,0 -0.07803664397643081,0.8611278635912516 l -29.086790821589258 -2.8884990083151076" fill="#d3ff1c" stroke="none" /><path d="M 120.8583938346157 102.4346265915055 l 17.452944168675838 2.037136814561545 a38.5714309763365,38.5714309763365 0 0,0 -0.08265029429164351,0.6588041658543389 l -17.415292365137347 -2.337258734703279" fill="#ff810b" stroke="none" /><path d="M 120.5718875245553 104.21870165774334 l 15.136020181275939 3.103961819457097 a36.45100921961539,36.45100921961539 0 0,0 -0.13133812628887553,0.613568001307993 l -15.080348016262619 -3.364043640181259" fill="#ff5f08" stroke="none" /><path d="M 120.49622156327973 104.57218783832717 l 40.30040653346125 8.989999842802607 a62.2909537784711,62.2909537784711 0 0,0 -0.24245844330944377,1.044504628050072 l -40.13968752422125 -9.682373128201244" fill="#3dff2e" stroke="none" /><line stroke="#e1ed5e" stroke-width="0.3" x1="174.80103733775053" x2="179.2010983576182" y1="140.37084112569926" y2="142.7455964860345" /><path d="M 175.68104954172406 140.8457921977663 a86.0,86.0 0 0,1 -30.038265399797805,32.042727171017184" fill="none" id="id29" stroke="none" /><text fill="#e1ed5e" style="font-size:6.75px; font-family:Arial;" text-anchor="middle"><textPath startOffset="22.206326154141568" xlink:href="#id29">May</textPath></text><path d="M 117.55443506779139 111.5257021239791 l 21.89549012737096 14.375905353378812 a47.19311250399816,47.19311250399816 0 0,0 -0.4516985266336238,0.6752280100563718 l -21.644788495326615 -14.75067027764099" fill="#fdff18" stroke="none" /><path d="M 115.07121518719521 114.62390073753431 l 25.892802178296133 25.12430246459002 a57.07863327478719,57.07863327478719 0 0,0 -0.6902692394832982,0.6992390952633595 l -25.4564923137573 -25.566282053834044" fill="#7bff26" stroke="none" /><path d="M 113.20401910651253 116.32954008644616 l 19.682329198477586 24.34132979121833 a52.30326530383206,52.30326530383206 0 0,0 -0.7049546357460097,0.560058597791629 l -19.260417070014224 -24.676522303015084" fill="#b8ff1f" stroke="none" /><line stroke="#e1ed5e" stroke-width="0.3" x1="143.8653032363475" x2="146.44561519142675" y1="172.8068346515853" y2="177.08958963109032" /><path d="M 144.38136562736335 173.6633856474863 a86.0,86.0 0 0,1 -40.68145358897372,12.25698825130547" fill="none" id="id30" stroke="none" /><text fill="#e1ed5e" style="font-size:6.75px; font-family:Arial;" text-anchor="middle"><textPath startOffset="21.466115282336833" xlink:href="#id30">June</textPath></text><path d="M 106.2309692047433 120.05430185196036 l 3.432352954445286 11.046988028526037 a32.56792943038152,32.56792943038152 0 0,0 -0.5367893050723368,0.1617302142684816 l -3.2416886749327034 -11.104433611900244" fill="#ff2003" stroke="none" /><line stroke="#e1ed5e" stroke-width="0.3" x1="102.19456741930631" x2="102.32365962044197" y1="184.97166512339345" y2="189.96999836594603" /><path d="M 102.22038585953345 185.97133177190398 a86.0,86.0 0 0,1 -42.740103519485714,-10.115201625700543" fill="none" id="id31" stroke="none" /><text fill="#e1ed5e" style="font-size:6.75px; font-family:Arial;" text-anchor="middle"><textPath startOffset="22.20632615414155" xlink:href="#id31">July</textPath></text><path d="M 99.09653310690486 120.98055641714683 l -1.0150827506000755 23.57253052635637 a44.59437620295499,44.59437620295499 0 0,0 -0.766623899567825,-0.039625698917438355 l 1.4206947185813894 -23.55156502067673" fill="#ffdb14" stroke="none" /><path d="M 95.86986931433489 120.58985236759428 l -4.516127456665971 22.51415383264493 a43.962633342124604,43.962633342124604 0 0,0 -0.7406835740234676,-0.15521744446811855 l 4.9030024921188256 -22.43308040745027" fill="#ffd213" stroke="none" /><path d="M 93.42475214034765 119.94407469862007 l -7.2405689155326 21.962129853386816 a44.12489969529817,44.12489969529817 0 0,0 -0.7192994617528355,-0.2440254311443738 l 7.617538110222661 -21.834241435344317" fill="#ffd513" stroke="none" /><line stroke="#e1ed5e" stroke-width="0.3" x1="58.666819895761336" x2="56.23545636021788" y1="174.27360380694188" y2="178.64263932499728" /><path d="M 58.180547188652646 175.14741091055294 a86.0,86.0 0 0,1 -31.652253787137756,-30.449443065178592" fill="none" id="id32" stroke="none" /><text fill="#e1ed5e" style="font-size:6.75px; font-family:Arial;" text-anchor="middle"><textPath startOffset="22.20632615414155" xlink:href="#id32">August</textPath></text><path d="M 87.65650970185807 116.9893568818739 l -28.52273231047301 39.258173074574046 a69.52577059262543,69.52577059262543 0 0,0 -0.9621539941641882,-0.711778523029322 l 29.194271275055762 -38.76138460280496" fill="#38ff82" stroke="none" /><path d="M 84.9287848128048 114.62390073753433 l -20.937002805912027 20.31559147501738 a50.173298467512495,50.173298467512495 0 0,0 -0.5960909173025029,-0.6249989436515915 l 21.283600274593486 -19.952185414783287" fill="#d4ff1c" stroke="none" /><path d="M 84.43433777217949 114.09645910891817 l -22.61675252732074 20.48201499632174 a51.512791304494215,51.512791304494215 0 0,0 -0.5895544533308198,-0.6623706781410307 l 22.9659658302999 -20.089670148439847" fill="#c2ff1e" stroke="none" /><path d="M 83.50135304334701 112.99209946851258 l -22.56865144057336 17.77201276907631 a49.726093812252046,49.726093812252046 0 0,0 -0.5237653789354735,-0.677037356557699 l 22.8712236367269 -17.380897418405354" fill="#daff1b" stroke="none" /><line stroke="#e1ed5e" stroke-width="0.3" x1="26.63291911575756" x2="22.317208475507996" y1="142.92168965132927" y2="145.44649492493687" /><path d="M 25.769776987707644 143.4266507060508 a86.0,86.0 0 0,1 -11.730757126820373,-40.83630448921669" fill="none" id="id33" stroke="none" /><text fill="#e1ed5e" style="font-size:6.75px; font-family:Arial;" text-anchor="middle"><textPath startOffset="21.46611528233685" xlink:href="#id33">September</textPath></text><path d="M 81.87401531095188 110.60418214915194 l -25.277126931120034 14.787790168816857 a50.28501125096096,50.28501125096096 0 0,0 -0.43065042366383727,-0.750875313290148 l 25.527929350936247 -14.350495009668402" fill="#d3ff1c" stroke="none" /><path d="M 81.35079622478065 109.6543875284942 l -13.169462478402666 6.817615156171326 a35.82951848131667,35.82951848131667 0 0,0 -0.2788241700540148,-0.5501465395724462 l 13.284865318242947 -6.589914404896194" fill="#ff5507" stroke="none" /><path d="M 81.18737489456691 109.33194174019688 l -18.243095780301008 9.049428563450949 a41.364250562548044,41.364250562548044 0 0,0 -0.31091486875576135,-0.6405767195790384 l 18.39616390567149 -8.734062887906624" fill="#ffac0f" stroke="none" /><path d="M 80.87730276802145 108.67885076344099 l -18.30910242137704 8.309600136426287 a41.106533413390046,41.106533413390046 0 0,0 -0.28688233083446874,-0.6468439213082534 l 18.44942583694279 -7.993207878625339" fill="#ffa80f" stroke="none" /><path d="M 79.86692584326677 105.97154293290107 l -50.66387387988606 15.027089040927427 a73.84544939312147,73.84544939312147 0 0,0 -0.3509675991375286,-1.2217642552211296 l 50.9150341159097 -14.152767310201702" fill="#3effb8" stroke="none" /><path d="M 79.1416061653843 102.43462659150553 l -62.5751815038471 7.303879774516597 a84.0,84.0 0 0,0 -0.15527079399579247,-1.4376147124608716 l 62.69163459934394 -6.225668740170943" fill="#4dd2ff" stroke="none" /><line stroke="#e1ed5e" stroke-width="0.3" x1="15.007084014347285" x2="10.007500721073583" y1="101.09737516637583" y2="101.16192664675087" /><path d="M 14.007167355692545 101.11028546245083 a86.0,86.0 0 0,1 10.666146001902534,-42.60595125391555" fill="none" id="id34" stroke="none" /><text fill="#e1ed5e" style="font-size:6.75px; font-family:Arial;" text-anchor="middle"><textPath startOffset="22.20632615414155" xlink:href="#id34">October</textPath></text><path d="M 79.00019446554 99.90962569577889 l -22.839396370950453 -0.09829112714724499 a43.83960787174466,43.83960787174466 0 0,0 0.009742816090455887,-0.7545918431658292 l 22.834320547742283 0.4914192283735462" fill="#ffd013" stroke="none" /><path d="M 79.03285615573316 98.82574320788736 l -28.994938440652916 -1.6238503276226854 a50.04037439606749,50.04037439606749 0 0,0 0.05556723603972327,-0.8596005468936675 l 28.96269061360878 2.122709938769365" fill="#d6ff1c" stroke="none" /><path d="M 79.3925641242962 95.95851677861259 l -36.09385912140124 -7.078645150911192 a57.78143395040598,57.78143395040598 0 0,0 0.19981563888189138,-0.9743720182678676 l 35.966664186604355 7.698892825342462" fill="#72ff27" stroke="none" /><path d="M 79.91906864156998 93.8553929516997 l -29.290978346763364 -8.962808984732531 a51.631574517274856,51.631574517274856 0 0,0 0.2673643139603328,-0.8476179391415565 l 29.132358549034826 9.4656770903005" fill="#c1ff1e" stroke="none" /><path d="M 81.43458229118936 90.18545643968196 l -22.983021801379426 -12.149894613485014 a46.99690809003013,46.99690809003013 0 0,0 0.38423754670628824,-0.7119338184768831 l 22.770476155454666 12.54370941529437" fill="#fffe18" stroke="none" /><line stroke="#e1ed5e" stroke-width="0.3" x1="26.266209847984243" x2="21.928928074336255" y1="57.711370442889674" y2="55.22380399835377" /><path d="M 25.398753493254645 57.213857153982495 a86.0,86.0 0 0,1 29.58750427330803,-30.492523968695096" fill="none" id="id35" stroke="none" /><text fill="#e1ed5e" style="font-size:6.75px; font-family:Arial;" text-anchor="middle"><textPath startOffset="21.46611528233685" xlink:href="#id35">November</textPath></text><path d="M 82.54541684631803 88.32363383020206 l -17.762426026588315 -11.882299824882612 a42.37037265651742,42.37037265651742 0 0,0 0.4107414882554822,-0.6027124511773337 l 17.555260072664094 12.186290299330361" fill="#ffbb11" stroke="none" /><path d="M 82.7489923806493 88.02491185347247 l -45.80833842980672 -31.798657947815933 a76.76341557851262,76.76341557851262 0 0,0 0.7628360043802838,-1.0789774296569075 l 45.25418980562255 32.582461877804626" fill="#43ffdb" stroke="none" /><line stroke="#e1ed5e" stroke-width="0.3" x1="56.762969772571076" x2="54.21961505331055" y1="26.818313649435495" y2="22.513508569990535" /><path d="M 56.25429882871897 25.957352633546506 a86.0,86.0 0 0,1 42.265352541879196,-11.944610805530505" fill="none" id="id36" stroke="none" /><text fill="#e1ed5e" style="font-size:6.75px; font-family:Arial;" text-anchor="middle"><textPath startOffset="22.20632615414155" xlink:href="#id36">December</textPath></text><path d="M 92.91201910852362 80.23233633223022 l -7.950516895183065 -22.17318956910506 a44.55548884162799,44.55548884162799 0 0,0 0.7241709599716724,-0.2526490284645803 l 7.567663931148107 22.30675945074185" fill="#ffdb14" stroke="none" /><path d="M 93.94186890950719 79.89281104454417 l -6.825226255424432 -22.65320969975801 a44.65907063134445,44.65907063134445 0 0,0 0.7379587798312947,-0.21543040399490726 l 6.434277257869716 22.767338432671615" fill="#ffdc14" stroke="none" /><path d="M 94.28887869178378 79.79150937346287 l -9.628629984734834 -34.070380979822325 a56.40482135943032,56.40482135943032 0 0,0 0.9365942983805817,-0.2560066018020063 l 9.04073779713053 34.23107412245063" fill="#83ff25" stroke="none" /><path d="M 98.19473922651362 79.07773832637324 l -1.9419466703178838 -22.506397407701435 a43.59002171631866,43.59002171631866 0 0,0 0.7481081653557213,-0.058067591843488274 l 1.5542483155998281 22.536490261733384" fill="#ffcd13" stroke="none" /></svg>