<?xml version="1.0" encoding="utf-8" ?>
<svg baseProfile="full" height="200mm" version="1.1" viewBox="0,0,200,200" width="200mm" xmlns="http://www.w3.org/2000/svg" xmlns:ev="http://www.w3.org/2001/xml-events" xmlns:xlink="http://www.w3.org/1999/xlink"><defs /><rect fill="#1a1a1a" height="200" width="200" x="0" y="0" /><text alignment-baseline="middle" fill="#e1ed5e" style="dominant-baseline: central; font-size:9.0px; font-family:Arial;" text-anchor="middle" x="100.0" y="100.0">2018</text><line stroke="#e1ed5e" stroke-width="0.3" x1="100.0" x2="100.0" y1="15.0" y2="10.0" /><path d="M 100.0 14.0 a86.0,86.0 0 0,1 42.46469731375804,11.215312516191453" fill="none" id="id61" stroke="none" /><text fill="#e1ed5e" style="font-size:6.75px; font-family:Arial;" text-anchor="middle"><textPath startOffset="22.20632615414155" xlink:href="#id61">January</textPath></text><path d="M 100.0 79.0 l 0.0 -8.556784660766962 a29.55678466076696,29.55678466076696 0 0,0 0.5087714611870932,0.004379156591320091 l -0.14729098191456477 8.5555168807842" fill="#ff3b05" stroke="none" /><path d="M 103.2404852339499 79.25152402106235 l 3.9298678560621583 -25.162518241910128 a46.46755162241888,46.46755162241888 0 0,0 0.7892199298071877,0.13022805071548849 l -4.362416992008221 25.091143928255015" fill="#dbff1b" stroke="none" /><path d="M 104.66035177308747 79.52364482259891 l 8.711292233055595 -38.27511795316867 a60.253933136676494,60.253933136676494 0 0,0 1.0093288783250804,0.23887553539138529 l -9.368844798343199 38.11949650563641" fill="#3dff2e" stroke="none" /><path d="M 105.71112130821622 79.79150937346287 l 4.344244098545046 -15.371870322302234 a36.97394296951819,36.97394296951819 0 0,0 0.6109676142742347,0.17835820044174988 l -4.608201930542707 15.294813792941781" fill="#ffa60f" stroke="none" /><path d="M 106.40334571778207 80.00007090966166 l 4.844784502374446 -15.131987366601336 a36.88864306784661,36.88864306784661 0 0,0 0.603071658540948,0.19882324409428098 l -5.104538983157811 15.046350398247819" fill="#ffa50f" stroke="none" /><path d="M 108.43124777332544 80.76684994638697 l 7.323997588737966 -16.707318822032228 a39.242133726647,39.242133726647 0 0,0 0.6163217815507632,0.2765256180331097 l -7.610501488755509 16.578772873482585" fill="#ffc512" stroke="none" /><path d="M 109.73455568895987 81.39251694778311 l 7.712277749502423 -14.741923730592923 a37.63741396263521,37.63741396263521 0 0,0 0.5714702798976543,0.3052596322522233 l -7.964893075928389 14.606985371838945" fill="#ffaf10" stroke="none" /><line stroke="#e1ed5e" stroke-width="0.3" x1="143.23703022742887" x2="145.7803849466894" y1="26.81831364943548" y2="22.513508569990506" /><path d="M 143.74570117128098 25.957352633546492 a86.0,86.0 0 0,1 28.547481713284135,27.462654790039103" fill="none" id="id62" stroke="none" /><text fill="#e1ed5e" style="font-size:6.75px; font-family:Arial;" text-anchor="middle"><textPath startOffset="19.985693538727396" xlink:href="#id62">February</textPath></text><path d="M 110.68208982089419 81.91981866633111 l 8.724181846745655 -14.766285663366551 a38.15093411996067,38.15093411996067 0 0,0 0.5625226863224597,0.3389136243999852 l -8.977066599285752 14.613925429507951" fill="#ffb610" stroke="none" /><path d="M 112.19680574252982 82.90503203632743 l 11.53262607878668 -16.164057829208407 a40.85644051130777,40.85644051130777 0 0,0 0.568983684983084,0.41339084488141326 l -11.809155080123555 15.963147749510318" fill="#ffdb14" stroke="none" /><path d="M 114.16331599549186 84.49514656593476 l 4.04168793999743 -4.4245132394020965 a26.992625368731563,26.992625368731563 0 0,0 0.3403540187294921,0.3163219672881025 l -4.117249842521768 4.354286686039353" fill="#ff1402" stroke="none" /><path d="M 115.19652480421416 85.50635884689758 l 11.772023481393456 -11.227533017147284 a37.267699115044245,37.267699115044245 0 0,0 0.43875205029578085,0.4680300961535152 l -11.9635428536597 11.023233504115714" fill="#ffaa0f" stroke="none" /><line stroke="#e1ed5e" stroke-width="0.3" x1="172.23445277983987" x2="176.4835382374775" y1="55.19839476539836" y2="52.563006222186495" /><path d="M 173.08426987136738 54.67131705675599 a86.0,86.0 0 0,1 12.851231095245387,41.99856678651699" fill="none" id="id63" stroke="none" /><text fill="#e1ed5e" style="font-size:6.75px; font-family:Arial;" text-anchor="middle"><textPath startOffset="22.20632615414155" xlink:href="#id63">March</textPath></text><path d="M 119.04729006885535 91.15688171328212 l 16.905283751354148 -7.848645310872743 a39.63839724680433,39.63839724680433 0 0,0 0.28199450990281016,0.6213375227820648 l -17.037880578220307 7.556485779248615" fill="#ffcb12" stroke="none" /><path d="M 119.61058180528143 92.48833698450437 l 13.588617197682655 -5.20500178164377 a35.55137659783677,35.55137659783677 0 0,0 0.2139776606865366,0.5733537476401968 l -13.676199446870818 4.97032489697424" fill="#ff920d" stroke="none" /><path d="M 119.97218684219823 93.5106431181261 l 19.930572274867703 -6.475835489298 a41.95624385447394,41.95624385447394 0 0,0 0.21726244956466387,0.6887813374382126 l -20.039090208200577 6.131803985433368" fill="#ffe915" stroke="none" /><path d="M 120.6074358757038 95.95851677861258 l 18.67473493179619 -3.6624463298558934 a40.03048180924287,40.03048180924287 0 0,0 0.1267904056705398,0.6773194169790517 l -18.735011061376593 3.340448835414279" fill="#ffd013" stroke="none" /><path d="M 120.78858239683441 97.02765380044208 l 27.83150920922826 -3.9793420757063074 a49.11455260570305,49.11455260570305 0 0,0 0.11245829494126568,0.8379449207773118 l -27.895883503227363 3.4996788128643312" fill="#baff1f" stroke="none" /><path d="M 120.83666639777658 97.38593545837742 l 18.589775789822305 -2.332180820156229 a39.73549655850541,39.73549655850541 0 0,0 0.07930003019019378,0.6793942309572683 l -18.627166173016086 2.011842850874108" fill="#ffcc13" stroke="none" /><path d="M 120.96714384426684 98.82574320788733 l 12.441663807575676 -0.6967905757570747 a33.461160275319564,33.461160275319564 0 0,0 0.027257129363399118,0.575354920710742 l -12.451814545172573 0.4825245484233329" fill="#ff740a" stroke="none" /><line stroke="#e1ed5e" stroke-width="0.3" x1="184.98032266829074" x2="189.97916517819016" y1="98.17113171792111" y2="98.06355123074" /><path d="M 185.9800911702706 98.14961562048488 a86.0,86.0 0 0,1 -9.607161424134198,41.387399972396054" fill="none" id="id64" stroke="none" /><text fill="#e1ed5e" style="font-size:6.75px; font-family:Arial;" text-anchor="middle"><textPath startOffset="21.466115282336823" xlink:href="#id64">April</textPath></text><path d="M 120.99513854157772 99.54816195383933 l 28.714098499833465 -0.6179583972611759 a49.720747295968536,49.720747295968536 0 0,0 0.011049827320578519,0.8558213033157579 l -28.72048133427176 0.1236008358849552" fill="#b3ff20" stroke="none" /><path d="M 120.99980553446 99.90962569577887 l 8.403314512753605 -0.03616432071217086 a29.403392330383483,29.403392330383483 0 0,0 -0.002178235102199233,0.5061451255281952 l -8.402691980361903 -0.1084902830197091" fill="#ff3905" stroke="none" /><path d="M 120.99824983174949 100.27111621757518 l 15.879453269191746 0.20502553031804197 a36.880776794493606,36.880776794493606 0 0,0 -0.013659827144562046,0.6347184921476948 l -15.873571379362176 -0.4783338382558517" fill="#ffa50f" stroke="none" /><path d="M 120.81339534386255 102.79330883721812 l 17.747471208834614 2.381839548371919 a38.90658800393314,38.90658800393314 0 0,0 -0.09479488080606444,0.6629951755714363 l -17.70384227701195 -2.6869801959237645" fill="#ffc111" stroke="none" /><path d="M 120.49622156327973 104.57218783832717 l 24.150023105949437 5.387258407577114 a45.74360865290069,45.74360865290069 0 0,0 -0.1780503182658271,0.7670361110794154 l -24.053712221753056 -5.802163176005094" fill="#e4ff1a" stroke="none" /><path d="M 120.13307415673323 105.97154293290107 l 19.041201087386586 5.647689414053267 a40.861111111111114,40.861111111111114 0 0,0 -0.20581007624798786,0.6725992372697407 l -18.941164238632464 -5.974615623875065" fill="#ffdb14" stroke="none" /><path d="M 119.79798401119884 107.00284435728193 l 12.156242137512566 4.299845459531604 a33.89429695181907,33.89429695181907 0 0,0 -0.19929158875400718,0.5483648599194717 l -12.080426287753331 -4.5084581164572075" fill="#ff7b0b" stroke="none" /><path d="M 119.26925614724726 108.34839909993367 l 57.80776844174181 25.045197299801014 a84.0,84.0 0 0,0 -0.5862356610749084,1.3218066540292492 l -57.368091695935625 -26.036552290322952" fill="#4dd2ff" stroke="none" /><path d="M 118.81262510543309 109.33194174019688 l 23.803383671294757 11.80759135926887 a47.57104228121928,47.57104228121928 0 0,0 -0.370196333773833,0.7304324870710576 l -23.596608667734653 -12.21557805804262" fill="#cdff1d" stroke="none" /><line stroke="#e1ed5e" stroke-width="0.3" x1="174.80103733775053" x2="179.2010983576182" y1="140.37084112569926" y2="142.7455964860345" /><path d="M 175.68104954172406 140.8457921977663 a86.0,86.0 0 0,1 -30.038265399797805,32.042727171017184" fill="none" id="id65" stroke="none" /><text fill="#e1ed5e" style="font-size:6.75px; font-family:Arial;" text-anchor="middle"><textPath startOffset="22.206326154141568" xlink:href="#id65">May</textPath></text><path d="M 117.55443506779139 111.5257021239791 l 23.202480231827927 15.234034855398416 a48.756637168141594,48.756637168141594 0 0,0 -0.4666634600672703,0.6975985550708416 l -22.936813666349934 -15.631170324675065" fill="#bfff1e" stroke="none" /><path d="M 116.498646956653 112.99209946851258 l 12.47769563346253 9.82574287659386 a36.882005899705014,36.882005899705014 0 0,0 -0.39706480482907164,0.49539939552902607 l -12.306712916578604 -10.039070105701136" fill="#ffa50f" stroke="none" /><path d="M 115.80600337817218 113.82643327865902 l 16.735735631945115 14.639724321704175 a43.23525073746312,43.23525073746312 0 0,0 -0.49481951895163884,0.5559349750878712 l -16.48125726334514 -14.925633466532913" fill="#fffa17" stroke="none" /><path d="M 112.34349029814194 116.9893568818739 l 15.319839465293526 21.085950064550772 a47.06366764995084,47.06366764995084 0 0,0 -0.6595024400277637,0.4705374800839888 l -14.954609697416878 -21.346531806478982" fill="#d3ff1c" stroke="none" /><path d="M 112.04921762599082 117.19931262002967 l 13.672366903041702 19.516230839247047 a44.82890855457227,44.82890855457227 0 0,0 -0.6358086563261754,0.4373149914340026 l -13.334401362092642 -19.748686620046144" fill="#efff19" stroke="none" /><path d="M 111.45004920935366 117.60387380957326 l 6.391295553542514 9.826294922150831 a32.721976401179944,32.721976401179944 0 0,0 -0.47480865154430574,0.3030453462093966 l -6.221205099951278 -9.934854697184036" fill="#ff6a09" stroke="none" /><line stroke="#e1ed5e" stroke-width="0.3" x1="143.8653032363475" x2="146.44561519142675" y1="172.8068346515853" y2="177.08958963109032" /><path d="M 144.38136562736335 173.6633856474863 a86.0,86.0 0 0,1 -40.68145358897372,12.25698825130547" fill="none" id="id66" stroke="none" /><text fill="#e1ed5e" style="font-size:6.75px; font-family:Arial;" text-anchor="middle"><textPath startOffset="21.466115282336833" xlink:href="#id66">June</textPath></text><line stroke="#e1ed5e" stroke-width="0.3" x1="102.19456741930631" x2="102.32365962044197" y1="184.97166512339345" y2="189.96999836594603" /><path d="M 102.22038585953345 185.97133177190398 a86.0,86.0 0 0,1 -42.740103519485714,-10.115201625700543" fill="none" id="id67" stroke="none" /><text fill="#e1ed5e" style="font-size:6.75px; font-family:Arial;" text-anchor="middle"><textPath startOffset="22.20632615414155" xlink:href="#id67">July</textPath></text><path d="M 92.7421414339146 119.70592522655815 l -1.7979826384097175 4.881730762392309 a26.202310717797445,26.202310717797445 0 0,0 -0.4218943589799677,-0.15952434650095823 l 1.8817472181499681 -4.850058165784718" fill="#ff0801" stroke="none" /><path d="M 91.7346041902142 119.30500536409082 l -6.253518667997554 14.605980670303016 a36.888397246804324,36.888397246804324 0 0,0 -0.5815707463537684,-0.25494352441269735 l 6.504010089009065 -14.496172592595865" fill="#ffa50f" stroke="none" /><line stroke="#e1ed5e" stroke-width="0.3" x1="58.666819895761336" x2="56.23545636021788" y1="174.27360380694188" y2="178.64263932499728" /><path d="M 58.180547188652646 175.14741091055294 a86.0,86.0 0 0,1 -31.652253787137756,-30.449443065178592" fill="none" id="id68" stroke="none" /><text fill="#e1ed5e" style="font-size:6.75px; font-family:Arial;" text-anchor="middle"><textPath startOffset="22.20632615414155" xlink:href="#id68">August</textPath></text><path d="M 88.8546689885994 117.79835938074946 l -10.614600963238663 16.950818457856624 a41.0,41.0 0 0,0 -0.5949260055274351,-0.37970992467733466 l 10.904808770813021 -16.765594104355486" fill="#ffdd14" stroke="none" /><path d="M 86.24171649860922 115.8653595955263 l -10.00643431320424 11.538916074229055 a36.273352999016716,36.273352999016716 0 0,0 -0.46819855790963055,-0.4131307908423592 l 10.203575224020458 -11.364962141614408" fill="#ff9c0e" stroke="none" /><path d="M 84.43433777217949 114.09645910891817 l -11.797783672673477 10.684220991283214 a36.916666666666664,36.916666666666664 0 0,0 -0.4225044825626434,-0.47468826509840145 l 11.979947004884458 -10.479558556443948" fill="#ffa50f" stroke="none" /><path d="M 83.06392112726016 112.41649034213515 l -48.36461031085668 35.45795466224897 a80.97000983284168,80.97000983284168 0 0,0 -0.8144048708686631,-1.1311371357736502 l 48.967794974100954 -34.620183921024186" fill="#49f0ff" stroke="none" /><line stroke="#e1ed5e" stroke-width="0.3" x1="26.63291911575756" x2="22.317208475507996" y1="142.92168965132927" y2="145.44649492493687" /><path d="M 25.769776987707644 143.4266507060508 a86.0,86.0 0 0,1 -11.730757126820373,-40.83630448921669" fill="none" id="id69" stroke="none" /><text fill="#e1ed5e" style="font-size:6.75px; font-family:Arial;" text-anchor="middle"><textPath startOffset="21.46611528233685" xlink:href="#id69">September</textPath></text><path d="M 80.20201598880116 107.00284435728193 l -4.4171650425323055 1.5624176318044851 a25.68534906588004,25.68534906588004 0 0,0 -0.14384916955101307,-0.41809302101893464 l 4.443405043026547 -1.4861519076962537" fill="#ff0000" stroke="none" /><path d="M 79.58551787078972 104.9243191809786 l -15.428433414199139 3.7215997012867166 a36.870943952802364,36.870943952802364 0 0,0 -0.1435147663003945,-0.618257857091703 l 15.490208746430088 -3.4554731868464392" fill="#ffa50f" stroke="none" /><path d="M 79.35854240842038 103.8639653848113 l -19.8605287282563 3.7177798704166 a41.2055063913471,41.2055063913471 0 0,0 -0.12450647503553673,-0.6982984329153883 l 19.921581645631022 -3.3753626867679976" fill="#ffe014" stroke="none" /><path d="M 79.04373962182676 101.35467743843564 l -19.86169145688971 1.2839211204801717 a40.9031465093412,40.9031465093412 0 0,0 -0.03937151672074802,-0.703004879337936 l 19.880849324497987 -0.9418445248067983" fill="#ffdb14" stroke="none" /><line stroke="#e1ed5e" stroke-width="0.3" x1="15.007084014347285" x2="10.007500721073583" y1="101.09737516637583" y2="101.16192664675087" /><path d="M 14.007167355692545 101.11028546245083 a86.0,86.0 0 0,1 10.666146001902534,-42.60595125391555" fill="none" id="id70" stroke="none" /><text fill="#e1ed5e" style="font-size:6.75px; font-family:Arial;" text-anchor="middle"><textPath startOffset="22.20632615414155" xlink:href="#id70">October</textPath></text><path d="M 79.05617556472873 98.46500227214037 l -8.76998744789207 -0.6427627794282296 a29.793510324483776,29.793510324483776 0 0,0 0.041888989102834596,-0.5111517679732319 l 8.757623974969738 0.7936284646092399" fill="#ff3f05" stroke="none" /><path d="M 79.32604984820605 96.31383870115002 l -19.76909577597386 -3.524825939291055 a41.08087512291052,41.08087512291052 0 0,0 0.13011736523570322,-0.6950921680091684 l 19.705492686828297 3.8645961847627963" fill="#ffde14" stroke="none" /><path d="M 79.81627453868168 94.20196356495316 l -21.660151228136904 -6.222158850210584 a43.53613569321534,43.53613569321534 0 0,0 0.21310752437176503,-0.7184926307563583 l 21.549837806653432 6.5940808677134815" fill="#fffe18" stroke="none" /><line stroke="#e1ed5e" stroke-width="0.3" x1="26.266209847984243" x2="21.928928074336255" y1="57.711370442889674" y2="55.22380399835377" /><path d="M 25.398753493254645 57.213857153982495 a86.0,86.0 0 0,1 29.58750427330803,-30.492523968695096" fill="none" id="id71" stroke="none" /><text fill="#e1ed5e" style="font-size:6.75px; font-family:Arial;" text-anchor="middle"><textPath startOffset="21.46611528233685" xlink:href="#id71">November</textPath></text><path d="M 82.7489923806493 88.02491185347247 l -20.003196396380847 -13.8855680401107 a45.35029498525074,45.35029498525074 0 0,0 0.45066829769491884,-0.6374383467515385 l 19.76121547888205 14.227832887194024" fill="#e9ff1a" stroke="none" /><path d="M 83.17141714833178 87.43820079747576 l -19.26241182030099 -14.37854580957563 a45.03711897738446,45.03711897738446 0 0,0 0.46908102396873147,-0.6172556424832752 l 19.01205485610815 14.707986227939932" fill="#edff1a" stroke="none" /><path d="M 83.84228863543731 86.58626213691792 l -17.09337880522022 -14.190506149927923 a43.21607669616519,43.21607669616519 0 0,0 0.48008819142579834,-0.5682729910375115 l 16.846580000307295 14.48263809059455" fill="#fffa17" stroke="none" /><line stroke="#e1ed5e" stroke-width="0.3" x1="56.762969772571076" x2="54.21961505331055" y1="26.818313649435495" y2="22.513508569990535" /><path d="M 56.25429882871897 25.957352633546506 a86.0,86.0 0 0,1 42.265352541879196,-11.944610805530505" fill="none" id="id72" stroke="none" /><text fill="#e1ed5e" style="font-size:6.75px; font-family:Arial;" text-anchor="middle"><textPath startOffset="22.20632615414155" xlink:href="#id72">December</textPath></text><path d="M 91.23893434514133 80.91482961587045 l -8.262751073960628 -17.99963820619626 a40.80555555555556,40.80555555555556 0 0,0 0.6408762803866513,-0.28754250591431085 l 7.951692675107203 18.1392010426271" fill="#ffda14" stroke="none" /><path d="M 92.91201910852362 80.23233633223022 l -6.690636455351454 -18.659510119694804 a40.82276302851524,40.82276302851524 0 0,0 0.6635020793091538,-0.23148284726612625 l 6.368452371979015 18.77191382013314" fill="#ffda14" stroke="none" /><path d="M 93.94186890950719 79.89281104454417 l -11.107140986322122 -36.86506271172476 a59.50196656833825,59.50196656833825 0 0,0 0.9832268792336819,-0.2870308879045895 l 10.470923889365018 37.050791928548044" fill="#45ff2d" stroke="none" /><path d="M 96.40284397218896 79.31037775812273 l -6.625313958934675 -38.10656028940974 a59.678220255653876,59.678220255653876 0 0,0 1.0135941997525,-0.16725172776939426 l 5.96839055304329 38.21495828011876" fill="#43ff2d" stroke="none" /></svg>