<?xml version="1.0" encoding="utf-8" ?>
<svg baseProfile="full" height="200mm" version="1.1" viewBox="0,0,200,200" width="200mm" xmlns="http://www.w3.org/2000/svg" xmlns:ev="http://www.w3.org/2001/xml-events" xmlns:xlink="http://www.w3.org/1999/xlink"><defs /><rect fill="#1a1a1a" height="200" width="200" x="0" y="0" /><text alignment-baseline="middle" fill="#e1ed5e" style="dominant-baseline: central; font-size:9.0px; font-family:Arial;" text-anchor="middle" x="100.0" y="100.0">2017</text><line stroke="#e1ed5e" stroke-width="0.3" x1="100.0" x2="100.0" y1="15.0" y2="10.0" /><path d="M 100.0 14.0 a86.0,86.0 0 0,1 42.46469731375804,11.215312516191453" fill="none" id="id49" stroke="none" /><text fill="#e1ed5e" style="font-size:6.75px; font-family:Arial;" text-anchor="middle"><textPath startOffset="22.20632615414155" xlink:href="#id49">January</textPath></text><path d="M 101.80526077348638 79.07773832637324 l 1.2258480985571778 -14.207096873101499 a35.259884470865344,35.259884470865344 0 0,0 0.6042450687031113,0.057380350107121274 l -1.4702182943505333 14.1838909784792" fill="#ff950d" stroke="none" /><path d="M 102.16513564639614 79.11191278185805 l 2.7430141267480455 -26.46315412869321 a47.604936627222244,47.604936627222244 0 0,0 0.8143465863717937,0.09150132747858561 l -3.1981274166295646 26.41201684774402" fill="#c8ff1d" stroke="none" /><path d="M 104.307194497241 79.44645832069477 l 2.498026666698766 -11.920356799048012 a33.179287476866136,33.179287476866136 0 0,0 0.5579765133265243,0.12195205409575174 l -2.702845904178818 11.87559124685639" fill="#ff770b" stroke="none" /><path d="M 105.36241919743992 79.69619591428918 l 8.750019486103623 -33.13032324604838 a55.266326902585384,55.266326902585384 0 0,0 0.9176897545611399,0.2508392758528706 l -9.319007129888474 32.97479742936921" fill="#70ff27" stroke="none" /><path d="M 106.0581310904928 79.89281104454417 l 3.3469467017458783 -11.108655252022585 a32.60190819359542,32.60190819359542 0 0,0 0.5359359802843535,0.16651791787702344 l -3.53766805474095 11.04939719926304" fill="#ff6f0a" stroke="none" /><path d="M 109.08828744355905 81.06846463323043 l 3.9082413819348543 -8.14113884529573 a30.030641859682575,30.030641859682575 0 0,0 0.4640860073136322,0.22772498828539825 l -4.0477986562589185 8.0726586968755" fill="#ff4a06" stroke="none" /><line stroke="#e1ed5e" stroke-width="0.3" x1="143.23703022742887" x2="145.7803849466894" y1="26.81831364943548" y2="22.513508569990506" /><path d="M 143.74570117128098 25.957352633546492 a86.0,86.0 0 0,1 28.547481713284135,27.462654790039103" fill="none" id="id50" stroke="none" /><text fill="#e1ed5e" style="font-size:6.75px; font-family:Arial;" text-anchor="middle"><textPath startOffset="19.985693538727396" xlink:href="#id50">February</textPath></text><path d="M 111.2981086023043 82.29822771554956 l 7.656922278109523 -11.996795157305016 a35.23206073691885,35.23206073691885 0 0,0 0.508403626326543,0.3306798607296932 l -7.862292930220346 11.863216372415796" fill="#ff940d" stroke="none" /><path d="M 111.90073688211348 82.69761687909136 l 6.790397881820015 -9.87250343054313 a32.98231310638775,32.98231310638775 0 0,0 0.46500170739540164,0.3257634123319297 l -6.959330728799068 9.754155175447265" fill="#ff750a" stroke="none" /><path d="M 114.42810811169701 84.74124197986012 l 4.910379343605702 -5.193077956660805 a28.14701923616174,28.14701923616174 0 0,0 0.34917953111351074,0.33591043227661743 l -4.999042118331631 5.107784437621887" fill="#ff2e04" stroke="none" /><path d="M 114.68862486808459 84.99185889309783 l 6.011866092046509 -6.142639997654202 a29.59503112556783,29.59503112556783 0 0,0 0.3610089270144889,0.3594586399536295 l -6.11671081922832 6.038245507050454" fill="#ff4406" stroke="none" /><path d="M 115.4437574822437 85.77008943001954 l 8.742599294810601 -8.055449346272379 a32.8879479558073,32.8879479558073 0 0,0 0.3800223675507377,0.4196301898658428 l -8.879965302977373 7.903766369136988" fill="#ff730a" stroke="none" /><path d="M 116.82858285166822 87.43820079747576 l 11.558030390497155 -8.627562892362358 a35.42299927093265,35.42299927093265 0 0,0 0.3605342533857553,0.49176831644162694 l -11.704827256396536 8.427332132249237" fill="#ff970d" stroke="none" /><path d="M 117.2510076193507 88.02491185347247 l 24.57151154665536 -17.056743765770356 a50.91139728562615,50.91139728562615 0 0,0 0.493538805046321,0.7242072969156147 l -24.861474817370414 16.631258445584336" fill="#a1ff22" stroke="none" /><line stroke="#e1ed5e" stroke-width="0.3" x1="172.23445277983987" x2="176.4835382374775" y1="55.19839476539836" y2="52.563006222186495" /><path d="M 173.08426987136738 54.67131705675599 a86.0,86.0 0 0,1 12.851231095245387,41.99856678651699" fill="none" id="id51" stroke="none" /><text fill="#e1ed5e" style="font-size:6.75px; font-family:Arial;" text-anchor="middle"><textPath startOffset="22.20632615414155" xlink:href="#id51">March</textPath></text><path d="M 118.21658344932153 89.55222093294921 l 6.312744445420275 -3.620555932235446 a28.277304974482643,28.277304974482643 0 0,0 0.2385289762415749,0.4243164329553506 l -6.374131062954283 3.5113559893453017" fill="#ff3004" stroke="none" /><path d="M 118.56541770881063 90.18545643968196 l 16.80620095729647 -8.884539737587838 a40.01008776849308,40.01008776849308 0 0,0 0.31663329359806475,0.6116347408782861 l -16.95664368405465 8.593932274449207" fill="#ffd513" stroke="none" /><path d="M 118.73160827565052 90.50648371742162 l 9.34531923168566 -4.736376022086107 a31.477034378329876,31.477034378329876 0 0,0 0.24078430451428756,0.4854064650433833 l -9.425463549153356 4.574809968543774" fill="#ff5f08" stroke="none" /><path d="M 119.04729006885535 91.15688171328212 l 8.33499201305373 -3.86970115033862 a30.189487409567604,30.189487409567604 0 0,0 0.2147733081454099,0.4732245152175858 l -8.400367638162487 3.7256546262789714" fill="#ff4c07" stroke="none" /><path d="M 119.34039704204932 91.81776055985345 l 8.76776958608074 -3.70933388561632 a30.520133475407995,30.520133475407995 0 0,0 0.20052935871166155,0.48559774796634375 l -8.8303206316786 3.557861567196673" fill="#ff5107" stroke="none" /><path d="M 119.47837535516314 92.15188598940014 l 40.73051617401007 -16.41090331281046 a64.91232965060848,64.91232965060848 0 0,0 0.408658508191228,1.0399913288323859 l -41.006968232083 15.70736297908229" fill="#34ff5c" stroke="none" /><path d="M 119.7369772167798 92.82701384747503 l 15.235389015417493 -5.536979307196608 a37.210342942067186,37.210342942067186 0 0,0 0.21359962874650698,0.6038749141017222 l -15.328441724973809 5.273906766668271" fill="#ffb010" stroke="none" /><path d="M 119.97218684219823 93.5106431181261 l 11.22448437378855 -3.6470560531023803 a32.802121305591385,32.802121305591385 0 0,0 0.16985956251205486,0.5385012314744305 l -11.285599420068813 3.453304655201531" fill="#ff720a" stroke="none" /><path d="M 120.37134235888165 94.90015583598534 l 17.225414614897833 -4.312279900309032 a38.756989232235995,38.756989232235995 0 0,0 0.1564438784542009,0.6485608758392907 l -17.29709129361285 4.015133792810335" fill="#ffc512" stroke="none" /><path d="M 120.98425023603335 99.18683210126433 l 11.217794643101866 -0.4347046187390348 a32.22621417755594,32.22621417755594 0 0,0 0.016708993643002476,0.5544901532298425 l -11.223615331200513 0.24154431808419324" fill="#ff6a09" stroke="none" /><line stroke="#e1ed5e" stroke-width="0.3" x1="184.98032266829074" x2="189.97916517819016" y1="98.17113171792111" y2="98.06355123074" /><path d="M 185.9800911702706 98.14961562048488 a86.0,86.0 0 0,1 -9.607161424134198,41.387399972396054" fill="none" id="id52" stroke="none" /><text fill="#e1ed5e" style="font-size:6.75px; font-family:Arial;" text-anchor="middle"><textPath startOffset="21.466115282336823" xlink:href="#id52">April</textPath></text><path d="M 120.95626037817324 101.35467743843564 l 9.475183147405076 0.6125051227271574 a30.494959620884977,30.494959620884977 0 0,0 -0.03837056078932598,0.5235358164178715 l -9.463236027951412 -0.7755140756417991" fill="#ff5107" stroke="none" /><path d="M 120.89721153311464 102.0752229133903 l 11.87898245188997 1.179656746684094 a32.937412371712185,32.937412371712185 0 0,0 -0.060883549656221295,0.5637060549519397 l -11.856916600732696 -1.383959123520825" fill="#ff740a" stroke="none" /><path d="M 120.81339534386255 102.79330883721812 l 15.760039290224674 2.1151117488031894 a36.90133755818518,36.90133755818518 0 0,0 -0.08990914071053695,0.6288243207226645 l -15.721296098497536 -2.386081541506263" fill="#ffab0f" stroke="none" /><path d="M 120.70491114924044 103.5080841355445 l 11.988115687210586 2.031175992702505 a33.158971734619485,33.158971734619485 0 0,0 -0.10019308213980424,0.561936013586585 l -11.951376162731593 -2.237230757022308" fill="#ff770b" stroke="none" /><path d="M 120.13307415673323 105.97154293290107 l 15.032200445931146 4.458605260182373 a36.67948376423084,36.67948376423084 0 0,0 -0.18474797050245717,0.6037670570480639 l -14.953225702922555 -4.716699289782493" fill="#ffa80f" stroke="none" /><path d="M 119.9155931802556 106.66101706037122 l 8.886960688519924 2.9723541862547656 a30.370856934552183,30.370856934552183 0 0,0 -0.1700900594102238,0.4943613300380738 l -8.83447979816647 -3.12488821938214" fill="#ff4f07" stroke="none" /><path d="M 118.64920377521936 109.65438752849418 l 21.075660662578944 10.910524540782134 a44.73232011665077,44.73232011665077 0 0,0 -0.35987682309472885,0.6807513261734307 l -20.88473133125932 -11.271690882041698" fill="#ecff1a" stroke="none" /><line stroke="#e1ed5e" stroke-width="0.3" x1="174.80103733775053" x2="179.2010983576182" y1="140.37084112569926" y2="142.7455964860345" /><path d="M 175.68104954172406 140.8457921977663 a86.0,86.0 0 0,1 -30.038265399797805,32.042727171017184" fill="none" id="id53" stroke="none" /><text fill="#e1ed5e" style="font-size:6.75px; font-family:Arial;" text-anchor="middle"><textPath startOffset="22.206326154141568" xlink:href="#id53">May</textPath></text><path d="M 117.94076556474637 110.91462005526583 l 20.325983856873947 12.365714843472574 a44.79194240367899,44.79194240367899 0 0,0 -0.4064023278979442,0.6552499538897882 l -20.11011688930804 -12.713761128727636" fill="#ebff1a" stroke="none" /><path d="M 116.93607887273984 112.41649034213515 l 25.070615942770754 18.380232110623933 a52.08647159441422,52.08647159441422 0 0,0 -0.5363386971380095,0.7185133320336055 l -24.750515978937653 -18.80905832216685" fill="#93ff23" stroke="none" /><path d="M 115.32070863581623 114.36230785411682 l 10.836237291108485 10.158366669236601 a35.85316303067691,35.85316303067691 0 0,0 -0.425958537547419,0.44661582365867764 l -10.659772202182102 -10.343389609477786" fill="#ff9d0e" stroke="none" /><path d="M 114.81725581225074 114.88116024355365 l 8.38929158261196 8.425473242321033 a32.88986175761315,32.88986175761315 0 0,0 -0.4046236834015667,0.39600943620491996 l -8.2430179468346 -8.568632781448525" fill="#ff730a" stroke="none" /><path d="M 113.20401910651253 116.32954008644616 l 15.67713462504627 19.388066333078903 a45.93330435757949,45.93330435757949 0 0,0 -0.6190989349117295,0.4918496365571519 l -15.341078197417188 -19.655049883641183" fill="#ddff1b" stroke="none" /><path d="M 111.1453310114006 117.79835938074945 l 6.925515923949425 11.05959268374075 a34.04903678986035,34.04903678986035 0 0,0 -0.4994195977879543,0.30678430733459217 l -6.734117126229162 -11.177165457903719" fill="#ff840c" stroke="none" /><line stroke="#e1ed5e" stroke-width="0.3" x1="143.8653032363475" x2="146.44561519142675" y1="172.8068346515853" y2="177.08958963109032" /><path d="M 144.38136562736335 173.6633856474863 a86.0,86.0 0 0,1 -40.68145358897372,12.25698825130547" fill="none" id="id54" stroke="none" /><text fill="#e1ed5e" style="font-size:6.75px; font-family:Arial;" text-anchor="middle"><textPath startOffset="21.466115282336833" xlink:href="#id54">June</textPath></text><path d="M 110.21172684928248 118.3499491758327 l 2.60304253612816 4.677533873111633 a26.353050866468507,26.353050866468507 0 0,0 -0.3982789134610593,0.21717341938536452 l -2.5221408107984518 -4.721647944256768" fill="#ff1302" stroke="none" /><path d="M 109.89434966115114 118.52300852407294 l 29.683048983453418 55.56902557221878 a84.0,84.0 0 0,0 -1.2812363898940176,0.6702823242211329 l -28.722121691032903 -56.07173731538463" fill="#4dd2ff" stroke="none" /><path d="M 105.18746579009965 120.34920634021253 l 6.840895961419694 26.835223421913238 a48.69344820817677,48.69344820817677 0 0,0 -0.8139845260955727,0.20005759236916404 l -6.37795815058091 -26.94900227259643" fill="#bbff1f" stroke="none" /><path d="M 102.34483914955558 120.86867818915974 l 0.7968126642894225 7.09150010193854 a28.136125287420782,28.136125287420782 0 0,0 -0.4817539767227301,0.04993576946047994 l -0.6746260909610898 -7.104165239854779" fill="#ff2e04" stroke="none" /><line stroke="#e1ed5e" stroke-width="0.3" x1="102.19456741930631" x2="102.32365962044197" y1="184.97166512339345" y2="189.96999836594603" /><path d="M 102.22038585953345 185.97133177190398 a86.0,86.0 0 0,1 -42.740103519485714,-10.115201625700543" fill="none" id="id55" stroke="none" /><text fill="#e1ed5e" style="font-size:6.75px; font-family:Arial;" text-anchor="middle"><textPath startOffset="22.20632615414155" xlink:href="#id55">July</textPath></text><path d="M 100.18074693466247 120.99922214144158 l 0.1133735679845389 13.171768271042188 a34.172256183051985,34.172256183051985 0 0,0 -0.5882410052939796,0.0 l 0.11337356798452983 -13.171768271042188" fill="#ff860c" stroke="none" /><path d="M 99.81925306533755 120.99922214144158 l -0.2846541214228238 33.071183975529095 a54.07240900678593,54.07240900678593 0 0,0 -0.9306642037934858,-0.01602222826739511 l 0.8538780151089775 -33.06138426998254" fill="#7dff26" stroke="none" /><path d="M 97.65516085044442 120.86867818915974 l -1.2059365327859224 10.732634442763489 a31.800172452470417,31.800172452470417 0 0,0 -0.5434385635918227,-0.06580284192213508 l 1.3905025194291345 -10.710286072116004" fill="#ff6409" stroke="none" /><path d="M 93.08242187328487 119.8279376855182 l -12.371169614519065 35.45963279639034 a58.55571056026022,58.55571056026022 0 0,0 -0.948826805575424,-0.34021553483856476 l 12.979715980724215 -35.24142972051182" fill="#4cff2c" stroke="none" /><line stroke="#e1ed5e" stroke-width="0.3" x1="58.666819895761336" x2="56.23545636021788" y1="174.27360380694188" y2="178.64263932499728" /><path d="M 58.180547188652646 175.14741091055294 a86.0,86.0 0 0,1 -31.652253787137756,-30.449443065178592" fill="none" id="id56" stroke="none" /><text fill="#e1ed5e" style="font-size:6.75px; font-family:Arial;" text-anchor="middle"><textPath startOffset="22.20632615414155" xlink:href="#id56">August</textPath></text><path d="M 87.65650970185807 116.9893568818739 l -4.456785007892157 6.134238308289743 a28.582335539229433,28.582335539229433 0 0,0 -0.395545537535223,-0.2926151325102916 l 4.561715515845944 -6.056613227039685" fill="#ff3505" stroke="none" /><path d="M 87.07902340077011 116.55440617244103 l -4.610131407341177 5.906518539009022 a28.49268128540183,28.49268128540183 0 0,0 -0.3840304738202544,-0.30509703429274154 l 4.711119373878789 -5.826287590711149" fill="#ff3304" stroke="none" /><path d="M 85.44109423537348 115.13401014063109 l -6.60370197751549 6.864560723804423 a30.52528601873142,30.52528601873142 0 0,0 -0.3755337665086555,-0.367538829909303 l 6.7208856963999395 -6.74987179097255" fill="#ff5107" stroke="none" /><path d="M 84.43433777217949 114.09645910891817 l -10.819514517379048 9.798288164058121 a35.59686080421737,35.59686080421737 0 0,0 -0.4073995464092181,-0.4577177092036993 l 10.986572913436603 -9.610596285113559" fill="#ff990e" stroke="none" /><path d="M 83.72743513129214 113.27417163493432 l -8.763352488496198 7.148611541467736 a32.309243732824854,32.309243732824854 0 0,0 -0.34783529919264006,-0.433978017865045 l 8.885105699743699 -6.996705690024432" fill="#ff6b09" stroke="none" /><line stroke="#e1ed5e" stroke-width="0.3" x1="26.63291911575756" x2="22.317208475507996" y1="142.92168965132927" y2="145.44649492493687" /><path d="M 25.769776987707644 143.4266507060508 a86.0,86.0 0 0,1 -11.730757126820373,-40.83630448921669" fill="none" id="id57" stroke="none" /><text fill="#e1ed5e" style="font-size:6.75px; font-family:Arial;" text-anchor="middle"><textPath startOffset="21.46611528233685" xlink:href="#id57">September</textPath></text><path d="M 81.35079622478065 109.6543875284942 l -3.9718850589909374 2.0561798798664 a25.472554820256857,25.472554820256857 0 0,0 -0.19822660917469614,-0.39111990566496635 l 4.0066903379519 -1.9875057624987487" fill="#ff0600" stroke="none" /><path d="M 81.18737489456691 109.33194174019688 l -8.679909525119063 4.305641001435688 a30.689136896416354,30.689136896416354 0 0,0 -0.23067525316211393,-0.4752593452670411 l 8.752738034895895 -4.1555927002033615" fill="#ff5407" stroke="none" /><path d="M 80.73074385275274 108.34839909993369 l -13.083150591871872 5.668270834683119 a35.258265100106556,35.258265100106556 0 0,0 -0.23648057353388324,-0.5589702206019663 l 13.178782146598062 -5.442226088414993" fill="#ff950d" stroke="none" /><path d="M 80.45479744820244 107.68017299344265 l -14.850862745931826 5.835559630981639 a36.95624894846055,36.95624894846055 0 0,0 -0.2275549711334435,-0.5940742239641511 l 14.949111996658779 -5.57906184018433" fill="#ffac0f" stroke="none" /><path d="M 80.20201598880116 107.00284435728193 l -11.182652162906763 3.955472059890618 a32.86159637709607,32.86159637709607 0 0,0 -0.18403928779948966,-0.5349043172263478 l 11.24908228164948 -3.7623950395749732" fill="#ff730a" stroke="none" /><path d="M 79.86692584326677 105.97154293290107 l -6.536672063365365 1.9388006799561186 a27.818139756603667,27.818139756603667 0 0,0 -0.13221215123049745,-0.46024784303811156 l 6.569076851481966 -1.8259953614134112" fill="#ff2904" stroke="none" /><path d="M 79.67330655649465 105.27499134158121 l -12.983902004832311 3.369459516167045 a34.4139840726824,34.4139840726824 0 0,0 -0.1438646872195989,-0.5746679118910134 l 13.039978006346969 -3.14546376487864" fill="#ff890c" stroke="none" /><path d="M 79.4281124754447 104.21870165774334 l -11.639395366351668 2.386904773251691 a32.88161768829566,32.88161768829566 0 0,0 -0.10893220697348766,-0.5554429765105912 l 11.67875750630082 -2.186198069673145" fill="#ff730a" stroke="none" /><path d="M 79.1416061653843 102.43462659150553 l -13.591411775331792 1.5864122993693517 a34.68368291178285,34.68368291178285 0 0,0 -0.06411146410012884,-0.5935925337655565 l 13.616705540932973 -1.352223443719013" fill="#ff8d0d" stroke="none" /><line stroke="#e1ed5e" stroke-width="0.3" x1="15.007084014347285" x2="10.007500721073583" y1="101.09737516637583" y2="101.16192664675087" /><path d="M 14.007167355692545 101.11028546245083 a86.0,86.0 0 0,1 10.666146001902534,-42.60595125391555" fill="none" id="id58" stroke="none" /><text fill="#e1ed5e" style="font-size:6.75px; font-family:Arial;" text-anchor="middle"><textPath startOffset="22.20632615414155" xlink:href="#id58">October</textPath></text><path d="M 79.16333360222342 97.38593545837743 l -7.740130361111147 -0.9710382619878156 a28.80080337614267,28.80080337614267 0 0,0 0.06594561222255171,-0.49137140873686436 l 7.722268749830762 1.1041280127893394" fill="#ff3805" stroke="none" /><path d="M 79.3925641242962 95.95851677861259 l -10.95712655532854 -2.1488866152527253 a32.165855812910095,32.165855812910095 0 0,0 0.11123367126810932,-0.5424148849375902 l 10.918513588145435 2.337177156353718" fill="#ff6909" stroke="none" /><path d="M 81.26839172434947 90.50648371742162 l -19.536953976638724 -9.901679981761355 a42.90287280578767,42.90287280578767 0 0,0 0.3395263214596849,-0.6558567840025284 l 19.363618222018925 10.236509488024218" fill="#fffb17" stroke="none" /><line stroke="#e1ed5e" stroke-width="0.3" x1="26.266209847984243" x2="21.928928074336255" y1="57.711370442889674" y2="55.22380399835377" /><path d="M 25.398753493254645 57.213857153982495 a86.0,86.0 0 0,1 29.58750427330803,-30.492523968695096" fill="none" id="id59" stroke="none" /><text fill="#e1ed5e" style="font-size:6.75px; font-family:Arial;" text-anchor="middle"><textPath startOffset="21.46611528233685" xlink:href="#id59">November</textPath></text><path d="M 81.78341655067845 89.55222093294921 l -6.252979422046079 -3.5862788263287366 a28.208408109472266,28.208408109472266 0 0,0 0.24519866661795203,-0.4191240035656562 l 6.190321080957802 3.6933822422482847" fill="#ff2f04" stroke="none" /><path d="M 82.15384107792192 88.93136811851018 l -6.713827873880603 -4.16408312713919 a28.900321070046548,28.900321070046548 0 0,0 0.2658449757316354,-0.4205029087984354 l 6.641155301903005 4.279033683651841" fill="#ff3905" stroke="none" /><path d="M 83.17141714833178 87.43820079747576 l -7.841533520046087 -5.853360938762429 a30.785268633279117,30.785268633279117 0 0,0 0.32064185413153373,-0.4219270948214301 l 7.739615725690444 5.987472809464886" fill="#ff5507" stroke="none" /><path d="M 83.6137871275137 86.86637796730984 l -12.59142751101901 -10.092084795225071 a37.13673518030396,37.13673518030396 0 0,0 0.4040857137171018,-0.4953613053845519 l 12.415843305225515 10.307330270217705" fill="#ffaf10" stroke="none" /><path d="M 84.07557802195018 86.31012108654704 l -8.838317654969995 -7.59810928534503 a32.65534742863552,32.65534742863552 0 0,0 0.37010658979559996,-0.4230958115295213 l 8.706219201596552 7.749120653077495" fill="#ff700a" stroke="none" /><path d="M 87.51073957382395 83.11751280151077 l -7.646266199310417 -10.335919567786862 a33.85677331613482,33.85677331613482 0 0,0 0.47150342521199684,-0.3425672905167118 l 7.467217457744638 10.466006093120242" fill="#ff810b" stroke="none" /><line stroke="#e1ed5e" stroke-width="0.3" x1="56.762969772571076" x2="54.21961505331055" y1="26.818313649435495" y2="22.513508569990535" /><path d="M 56.25429882871897 25.957352633546506 a86.0,86.0 0 0,1 42.265352541879196,-11.944610805530505" fill="none" id="id60" stroke="none" /><text fill="#e1ed5e" style="font-size:6.75px; font-family:Arial;" text-anchor="middle"><textPath startOffset="22.20632615414155" xlink:href="#id60">December</textPath></text><path d="M 89.3179101791058 81.91981866633112 l -6.73471586031434 -11.39897585836121 a34.23982810835062,34.23982810835062 0 0,0 0.5100157196246595,-0.29543402404345415 l 6.537503408224361 11.513214039794711" fill="#ff860c" stroke="none" /><path d="M 89.94658935756843 81.56283822128135 l -4.121779961948068 -7.559019190360757 a29.609752677920476,29.609752677920476 0 0,0 0.4495817291631772,-0.2401509897176976 l 3.9910531862565852 7.628848906580203" fill="#ff4406" stroke="none" /><path d="M 91.56875222667455 80.76684994638697 l -5.141330539583362 -11.728273726680937 a33.805689529471145,33.805689529471145 0 0,0 0.534960938559113,-0.22904235541888818 l 4.938685843233941 11.815035610062612" fill="#ff800b" stroke="none" /><path d="M 95.33964822691252 79.52364482259891 l -0.9129713020787514 -4.011354841515293 a25.113937804946442,25.113937804946442 0 0,0 0.4223414219510852,-0.09230747658103551 l 0.8437871559741453 4.026475816192196" fill="#ff0000" stroke="none" /><path d="M 96.75951476605007 79.25152402106235 l -1.1330158258684748 -7.254577617109907 a28.342521451404856,28.342521451404856 0 0,0 0.4826745163756577,-0.07113367682262361 l 1.0079723290641682 7.273005778093499" fill="#ff3104" stroke="none" /><path d="M 97.47563105711357 79.15227682838746 l -2.0403876307123974 -16.850720893133825 a37.97380264707532,37.97380264707532 0 0,0 0.6495930621514411,-0.07298934937832659 l 1.7500278650512382 16.883346195982753" fill="#ffba11" stroke="none" /><path d="M 97.83486435360386 79.11191278185805 l -0.6835337242709605 -6.594373000545429 a27.62970388648982,27.62970388648982 0 0,0 0.4734874368897585,-0.044963337406075686 l 0.5699211602909656 6.6051618824666845" fill="#ff2603" stroke="none" /></svg>